<svg width="105" height="105" viewBox="0 0 105 105" fill="none" xmlns="http://www.w3.org/2000/svg">
<path fill-rule="evenodd" clip-rule="evenodd" d="M85.3443 47.456C85.3086 48.3926 85.2351 49.3187 85.1238 50.2364C83.7147 50.0915 82.3182 49.8311 80.9511 49.4552C78.8469 48.716 76.5726 48.6068 74.4054 49.1402C73.1433 49.7681 71.2659 48.3674 72.7443 46.8134C73.7943 46.3577 74.9136 46.0889 76.056 46.0196C77.9376 45.965 79.8129 46.2149 81.6147 46.7567C82.8369 47.0927 84.0822 47.3279 85.3422 47.4581" fill="white"/>
<path fill-rule="evenodd" clip-rule="evenodd" d="M19.2234 46.3366V46.1602C19.2234 45.2299 19.2633 44.3059 19.3389 43.3945C20.6451 43.8754 21.903 44.476 23.0979 45.19C25.1769 46.5613 27.5793 47.3593 30.0657 47.5021C32.3631 47.4643 34.6206 46.8889 36.6555 45.82L36.9096 45.7087C37.6278 45.4168 38.4468 45.7612 38.7387 46.4794C39.0075 47.1388 38.7387 47.8948 38.115 48.2371C38.0058 48.2854 37.8819 48.3169 37.7832 48.361C35.385 49.6105 32.7243 50.2657 30.0195 50.2762C27.0732 50.1523 24.2151 49.2325 21.7476 47.6176C20.9286 47.1451 20.0865 46.7146 19.2255 46.3303" fill="white"/>
<path fill-rule="evenodd" clip-rule="evenodd" d="M84.651 53.067C84.4578 53.9784 84.2268 54.8814 83.958 55.7655L83.3427 55.5576C81.3099 54.642 79.0545 54.3417 76.8516 54.6903C76.1922 55.1271 75.306 54.9465 74.8692 54.2871C74.4345 53.6277 74.613 52.7415 75.2724 52.3047C75.3123 52.2795 75.3522 52.2543 75.3921 52.2333C76.4757 51.8679 77.616 51.6957 78.7584 51.723C80.6379 51.828 82.4859 52.2354 84.2352 52.9305L84.6552 53.0712" fill="white"/>
<path fill-rule="evenodd" clip-rule="evenodd" d="M19.8891 52.8572C19.6392 51.6413 19.4607 50.4107 19.3515 49.1738C19.8471 49.4846 20.3322 49.8101 20.8215 50.1377C22.7766 51.6791 25.1034 52.6766 27.5688 53.0294C29.862 53.1869 32.1573 52.8047 34.2762 51.9143L34.8789 51.7064C36.309 51.4355 37.1805 53.5985 35.889 54.2999C35.6559 54.3776 35.4207 54.4595 35.1876 54.5393C32.6949 55.5809 29.988 56.0135 27.2937 55.7951C24.612 55.4822 22.0605 54.47 19.8933 52.8614" fill="white"/>
<path fill-rule="evenodd" clip-rule="evenodd" d="M83.1162 58.405C82.7445 59.3584 82.3266 60.2907 81.873 61.2C80.76 60.9417 79.6218 60.8073 78.4794 60.7989C75.8922 60.9144 73.3785 61.6831 71.1693 63.0312C65.6526 65.8684 64.2141 65.5009 58.3173 63.4492C52.7586 61.5193 51.234 60.9922 45.9063 63.6256C39.2136 66.9373 35.1774 66.8869 28.5057 63.5269C27.0063 62.668 25.383 62.0442 23.6946 61.6788C23.4279 61.6368 23.1675 61.6075 22.9197 61.5907C22.4157 60.6184 21.96 59.6209 21.5505 58.5961C22.4241 58.5268 23.3019 58.5646 24.1671 58.7074C26.1663 59.1085 28.0899 59.8267 29.8623 60.8347C35.6646 63.7579 38.7537 63.8041 44.577 60.925C50.6859 57.9031 52.9581 58.4008 59.3127 60.6121C64.3758 62.3656 65.0835 62.7814 69.7938 60.3559C72.4209 58.7641 75.4155 57.8779 78.4857 57.7812C80.0523 57.796 81.6084 58.0081 83.1225 58.4092" fill="white"/>
<path fill-rule="evenodd" clip-rule="evenodd" d="M80.4153 63.8023C79.8021 64.7893 79.1364 65.7427 78.4245 66.6604C78.3132 66.6604 78.2019 66.6604 78.0885 66.6604C75.5034 66.7759 72.9876 67.5424 70.7784 68.8927C65.2617 71.7319 63.8232 71.3644 57.9243 69.3127C55.6248 68.311 53.1552 67.765 50.6499 67.6999C48.8418 67.9687 47.0988 68.5735 45.5154 69.4849C39.375 72.5236 35.1645 72.8575 28.9548 69.8041C27.4176 68.2711 26.0337 66.589 24.8241 64.7872C26.3361 65.3647 27.867 66.2131 29.5113 66.988C35.1729 69.655 38.6337 69.5227 44.184 66.7801C46.095 65.6902 48.1992 64.9846 50.3811 64.7011C53.319 64.699 56.2254 65.3017 58.9197 66.4693C69.972 70.3123 68.7687 63.6406 78.0906 63.6406C78.8697 63.6448 79.6467 63.7036 80.4174 63.817" fill="white"/>
<path fill-rule="evenodd" clip-rule="evenodd" d="M75.8037 69.6338C72.8637 72.6032 69.3903 74.9909 65.5662 76.6709C62.9265 77.156 59.976 76.0241 57.5211 75.1694C51.9624 73.2395 50.4399 72.7124 45.1101 75.3458C43.6191 76.1438 42.0483 76.7843 40.4229 77.2547C38.6085 76.5575 36.8613 75.7007 35.1981 74.6948C35.7021 74.7473 36.2082 74.7662 36.7164 74.7536C39.2028 74.615 41.622 73.8926 43.7787 72.6494C49.8876 69.6275 52.1598 70.1273 58.5144 72.3344C68.88 75.9422 69.9573 71.2067 75.8058 69.6443" fill="white"/>
<path fill-rule="evenodd" clip-rule="evenodd" d="M59.4799 78.6622C57.1174 79.1851 54.7066 79.4497 52.2874 79.4476C51.8653 79.4476 51.4432 79.435 51.0253 79.4203C50.8489 79.4077 50.6578 79.3993 50.4793 79.3972C48.2008 79.2754 45.9391 78.9184 43.7341 78.3283C45.5401 77.3245 47.5204 76.6798 49.57 76.4278C52.5079 76.4236 55.4143 77.0242 58.1086 78.1918C58.5685 78.3535 59.0221 78.511 59.4715 78.6622" fill="white"/>
<path fill-rule="evenodd" clip-rule="evenodd" d="M52.2984 13.0936C54.0267 13.0957 55.7508 13.2301 57.4581 13.4947C59.661 17.4532 61.1226 21.7792 61.7736 26.2627C61.8198 26.5861 61.8597 26.9158 61.8954 27.2497C63.9051 24.9607 65.4192 22.2811 66.3432 19.3789C66.612 18.4339 66.801 17.4679 66.9102 16.4914C67.7775 16.9198 68.6217 17.3818 69.4428 17.8795C68.6952 22.1446 66.8997 26.1577 64.2138 29.5555C62.5569 31.4455 62.1663 31.9453 62.0739 32.0734C62.0529 32.5438 62.0193 33.01 61.971 33.4762C61.9185 33.9865 61.8555 34.5031 61.7778 35.0197C64.0395 34.7824 66.2739 34.3204 68.4453 33.64C69.3609 30.6244 70.6524 27.7369 72.2883 25.0447C73.0065 23.9128 73.8255 22.8481 74.7327 21.8632C75.3564 22.4386 75.957 23.0371 76.5345 23.6587C75.9969 24.274 75.5097 24.9313 75.0729 25.6243C73.6827 27.7327 72.5277 29.986 71.631 32.3464C72.5781 31.876 73.4727 31.3069 74.298 30.6454C75.9234 29.3602 77.448 27.9532 78.8592 26.4349C79.4136 27.1783 79.9365 27.9469 80.4279 28.7407C79.3191 29.9755 78.1158 31.1242 76.8327 32.1784C72.9183 34.9924 68.4747 36.9832 63.7686 38.0311C62.9097 38.2684 62.0277 38.4112 61.1373 38.4511C60.9189 39.3667 60.6669 40.2718 60.3771 41.1727C62.7438 40.3747 65.1798 39.7993 67.6515 39.4528C73.3572 38.6737 79.1511 38.8417 84.8001 39.9526C84.9954 40.9753 85.1508 42.0169 85.2411 43.0711C81.1944 42.1051 77.0385 41.683 72.8826 41.8132C68.9661 41.8195 65.1084 42.7561 61.6287 44.5495C60.375 45.2215 59.1822 46.0048 58.0692 46.891C56.5257 51.4165 58.7349 55.3267 62.5674 59.8816C59.8689 58.504 57.0129 57.4624 54.0603 56.7841C55.776 55.438 56.0742 52.9579 54.7302 51.2422C54.4173 50.8453 54.033 50.5114 53.5941 50.2573C50.5659 48.088 53.9973 46.8301 54.7113 45.9166C55.2174 45.127 55.377 44.1631 55.1502 43.2538C54.4173 45.3811 52.8423 45.7822 51.6411 46.5445C50.8431 47.0086 50.253 47.7583 49.9905 48.6403C49.4613 50.4106 50.463 52.2775 52.2333 52.813C51.2253 53.4829 49.8645 53.2099 49.1925 52.1998C48.8439 51.6769 48.7389 51.0301 48.8985 50.4232C47.5566 52.3321 47.8275 54.9403 49.5369 56.5321C45.8808 57.0067 44.0979 59.2495 41.4876 60.4717C42.5397 56.7232 47.0043 52.7752 45.3306 45.799C44.9841 45.7402 44.6418 45.6583 44.3058 45.5575C38.9508 44.0413 34.1313 41.0446 30.4017 36.9118C28.098 34.2238 26.1639 31.2397 24.6519 28.0393C25.179 27.2266 25.7544 26.4349 26.3571 25.6747C27.3609 27.3694 28.266 29.2153 29.3265 30.8575C30.4416 32.6257 31.7352 34.2763 33.1863 35.782C35.9268 38.722 39.4779 40.7821 43.3902 41.7019C41.2335 37.9114 40.0155 33.6589 39.837 29.3014C37.0881 26.3173 34.7907 22.9489 33.0141 19.3012C33.7722 18.7573 34.5513 18.2449 35.3535 17.7619C36.4497 20.5171 38.1108 23.0119 40.2297 25.0888C41.139 21.0211 42.882 17.1865 45.3474 13.8265C46.9035 13.4947 48.4827 13.2742 50.0724 13.1671C44.8497 17.6863 42.0735 27.3883 43.932 33.7639C44.0328 34.1146 44.1441 34.4569 44.2638 34.7929C45.9921 32.2792 49.6272 27.1132 50.6289 21.691C51.3114 18.8854 51.5235 15.9853 51.2526 13.1104C51.6033 13.0978 51.954 13.0894 52.3047 13.0894M54.3564 14.6203C54.4068 16.7308 54.2934 18.8434 54.0162 20.935C53.0397 28.0897 48.6633 34.8958 47.1408 37.3234C46.7901 37.8715 46.4667 38.3377 46.1685 38.7262C49.3479 43.6843 54.3501 45.5953 57.6345 38.2369C58.7202 34.0642 58.968 29.7172 58.359 25.4479C57.6912 21.6238 56.3346 17.953 54.3564 14.614V14.6203Z" fill="white"/>
<path fill-rule="evenodd" clip-rule="evenodd" d="M62.4015 18.0685C62.517 17.3944 62.3763 16.7035 62.0088 16.1281C61.3704 15.3427 59.7387 15.1054 59.0079 14.1982C58.7622 15.6283 59.3523 17.071 60.5283 17.9215C61.1226 18.1651 61.7778 18.2155 62.4015 18.0664" fill="white"/>
<path fill-rule="evenodd" clip-rule="evenodd" d="M30.0006 40.78C30.2568 39.8455 30.1497 38.8501 29.7045 37.9912C28.9086 36.7942 26.6364 36.2377 25.7271 34.8706C25.1895 36.8551 25.83 38.974 27.3756 40.3285C28.182 40.7548 29.1039 40.9123 30.0069 40.7821" fill="white"/>
<path fill-rule="evenodd" clip-rule="evenodd" d="M24.7019 39.2177C24.9518 38.6444 24.977 37.9997 24.7754 37.4096C24.3785 36.5675 22.982 36.0068 22.5305 35.0366C21.9971 36.2546 22.2071 37.67 23.0681 38.6843C23.5448 39.0266 24.116 39.2114 24.704 39.2114" fill="white"/>
<path fill-rule="evenodd" clip-rule="evenodd" d="M24.7359 34.7487C25.1076 34.2447 25.2777 33.6189 25.2105 32.9952C25.0131 32.0901 23.7741 31.2249 23.5473 30.1875C22.7577 31.2564 22.6464 32.6802 23.2596 33.8604C23.646 34.3014 24.1626 34.6122 24.7359 34.7487Z" fill="white"/>
<path fill-rule="evenodd" clip-rule="evenodd" d="M36.7904 34.1545C36.6707 33.0898 36.1541 32.1091 35.3435 31.4098C34.0373 30.5068 31.4837 30.8659 29.9822 29.8306C30.2447 32.0881 31.7672 34.0012 33.9092 34.7614C34.9088 34.8685 35.9168 34.6564 36.7904 34.1545Z" fill="white"/>
<path fill-rule="evenodd" clip-rule="evenodd" d="M32.9024 25.95C33.2258 25.3473 33.3119 24.648 33.1418 23.9844C32.7911 23.0331 31.3148 22.2939 30.9095 21.2061C30.2228 22.485 30.3257 24.0411 31.172 25.2192C31.6571 25.6392 32.2619 25.8933 32.9024 25.95Z" fill="white"/>
<path fill-rule="evenodd" clip-rule="evenodd" d="M33.2115 29.2823C33.2997 28.3625 33.0414 27.4427 32.4849 26.7035C31.542 25.7039 29.3139 25.5485 28.2366 24.4019C28.0476 26.357 28.9905 28.2491 30.6642 29.2781C31.4916 29.5469 32.382 29.5469 33.2094 29.2781" fill="white"/>
<path fill-rule="evenodd" clip-rule="evenodd" d="M37.22 31.8928C36.2099 31.6324 35.3342 31.0024 34.763 30.1288C34.0616 28.7449 34.763 26.3257 33.9587 24.7402C36.1049 25.2925 37.7492 27.0229 38.1944 29.1943C38.1629 30.175 37.8227 31.1179 37.22 31.8928Z" fill="white"/>
<path fill-rule="evenodd" clip-rule="evenodd" d="M41.1091 38.1172C40.876 37.2604 40.33 36.5212 39.5782 36.0466C38.3917 35.467 36.3379 36.0844 34.9792 35.4229C35.4769 37.2436 36.9658 38.6233 38.8222 38.9782C39.6538 38.9362 40.4518 38.6359 41.1028 38.1172" fill="white"/>
<path fill-rule="evenodd" clip-rule="evenodd" d="M39.8543 22.0334C40.205 21.395 40.3016 20.6495 40.1294 19.9439C39.7598 18.9296 38.1995 18.1274 37.7774 16.9619C37.034 18.3143 37.1264 19.9733 38.0168 21.2354C38.5292 21.6869 39.1718 21.9662 39.8522 22.0292" fill="white"/>
<path fill-rule="evenodd" clip-rule="evenodd" d="M40.146 18.4065C40.734 18.4233 41.3052 18.2217 41.7525 17.8395C42.3447 17.2032 42.3552 15.7836 43.0377 15.0528C41.7903 15.015 40.629 15.687 40.0452 16.7895C39.9087 17.325 39.9444 17.892 40.146 18.4065Z" fill="white"/>
<path fill-rule="evenodd" clip-rule="evenodd" d="M45.3285 31.0589C44.5095 30.4184 43.9614 29.4944 43.7892 28.4675C43.7052 26.9282 45.3012 24.9941 45.2025 23.228C46.9392 24.5888 47.7519 26.8211 47.2962 28.9799C46.8741 29.864 46.1853 30.5906 45.3285 31.0589Z" fill="white"/>
<path fill-rule="evenodd" clip-rule="evenodd" d="M48.607 24.8135C49.174 24.131 49.468 23.2637 49.426 22.3775C49.2181 21.0776 47.5402 19.7462 47.305 18.2573C46.1017 19.7063 45.8287 21.716 46.6036 23.4317C47.1118 24.0932 47.8153 24.5762 48.6154 24.8114" fill="white"/>
<path fill-rule="evenodd" clip-rule="evenodd" d="M49.6839 19.1329C49.4277 18.9439 48.8061 18.7045 48.6066 18.0304C48.3777 17.2765 48.9405 16.1215 48.6759 15.2563C49.7049 15.7225 50.379 16.7347 50.4105 17.8624C50.3076 18.3538 50.0514 18.7969 49.6839 19.1329Z" fill="white"/>
<path fill-rule="evenodd" clip-rule="evenodd" d="M55.7466 22.0335C55.4904 21.8445 54.8688 21.603 54.6672 20.931C54.4404 20.1708 55.0011 19.0179 54.7386 18.1548C55.7676 18.621 56.4417 19.6332 56.4711 20.763C56.3724 21.2523 56.1183 21.6975 55.7466 22.0335Z" fill="white"/>
<path fill-rule="evenodd" clip-rule="evenodd" d="M57.6202 28.5431C56.7424 28.4234 55.9402 27.9803 55.3711 27.2999C54.6466 26.1995 54.9889 24.089 54.1531 22.8311C56.02 23.0852 57.5803 24.3767 58.1767 26.1638C58.2439 26.9954 58.0507 27.827 57.6202 28.5431Z" fill="white"/>
<path fill-rule="evenodd" clip-rule="evenodd" d="M56.9515 34.1733C55.891 34.0284 54.9229 33.4929 54.2383 32.6697C53.3605 31.3446 53.7742 28.7952 52.7683 27.2769C55.0237 27.5856 56.9053 29.1522 57.6214 31.311C57.7054 32.3127 57.4723 33.3165 56.9536 34.1796" fill="white"/>
<path fill-rule="evenodd" clip-rule="evenodd" d="M54.1167 40.9522C53.4594 40.4902 51.8907 39.9232 51.3426 38.2432C50.7231 36.3532 52.0692 33.4174 51.3594 31.2544C54.2133 32.7643 56.1369 35.4649 55.8765 37.7161C55.6476 38.953 55.0344 40.0849 54.123 40.9522" fill="white"/>
<path fill-rule="evenodd" clip-rule="evenodd" d="M50.203 41.7987C49.8397 41.5425 48.9745 41.2296 48.67 40.2993C48.3298 39.2472 49.0711 37.6302 48.67 36.4395C50.1169 37.0569 51.0871 38.4429 51.169 40.0137C51.0409 40.6983 50.7007 41.3241 50.1946 41.805" fill="white"/>
<path fill-rule="evenodd" clip-rule="evenodd" d="M62.1709 22.9887C61.7152 22.1802 61.5767 21.231 61.7846 20.3259C62.2403 19.026 64.2185 17.976 64.7414 16.4829C65.7116 18.2007 65.6192 20.3217 64.502 21.9471C63.8552 22.5309 63.0382 22.8963 62.1709 22.9887Z" fill="white"/>
<path fill-rule="evenodd" clip-rule="evenodd" d="M68.6296 23.3184C68.6443 22.6401 68.9089 21.9933 69.373 21.4998C70.1458 20.8509 71.7796 20.9244 72.6616 20.1768C72.6343 21.6174 71.7901 22.9173 70.4839 23.5284C69.8602 23.6544 69.2092 23.5809 68.6296 23.3184Z" fill="white"/>
<path fill-rule="evenodd" clip-rule="evenodd" d="M66.1311 28.3123C66.1458 27.4807 66.4713 26.6848 67.0446 26.0821C67.9875 25.2883 69.9909 25.3807 71.0703 24.4609C71.0388 26.227 70.0035 27.8209 68.4033 28.5685C67.6347 28.7239 66.8367 28.6357 66.1227 28.3123" fill="white"/>
<path fill-rule="evenodd" clip-rule="evenodd" d="M63.8123 33.0584C63.827 32.2268 64.1525 31.4309 64.7237 30.8282C65.6666 30.0323 67.67 30.1268 68.7578 29.207C68.7242 30.9731 67.691 32.5649 66.0908 33.3146C65.3243 33.4721 64.5263 33.3818 63.8123 33.0584Z" fill="white"/>
<path fill-rule="evenodd" clip-rule="evenodd" d="M74.6739 28.3374C74.529 27.7452 74.6088 27.1194 74.9007 26.5839C75.4278 25.8426 76.8621 25.5318 77.4543 24.6729C77.7651 25.9329 77.3304 27.2601 76.335 28.0917C75.8226 28.3479 75.2409 28.434 74.6739 28.3374Z" fill="white"/>
<path fill-rule="evenodd" clip-rule="evenodd" d="M75.3147 36.3888C75.1908 35.2884 75.4827 34.1839 76.1337 33.2893C77.2425 32.0776 79.9011 31.8444 81.1695 30.4521C81.2472 33.1212 80.0796 35.6077 78.3618 36.3343C77.379 36.6724 76.3122 36.6912 75.3189 36.3888" fill="white"/>
<path fill-rule="evenodd" clip-rule="evenodd" d="M78.5253 38.4407C78.5589 37.6784 78.8781 36.9581 79.4178 36.4205C80.2956 35.7191 82.1415 35.8409 83.1495 35.0303C83.0781 36.6494 82.089 38.0858 80.6043 38.7326C79.8987 38.8565 79.17 38.7557 78.5253 38.4407Z" fill="white"/>
<path fill-rule="evenodd" clip-rule="evenodd" d="M69.7141 37.5879C69.8737 36.9432 70.2664 36.3804 70.8187 36.0087C71.6965 35.5551 73.2421 35.9772 74.2417 35.4585C73.9078 36.8319 72.8158 37.8924 71.434 38.1885C70.8103 38.1759 70.2055 37.9659 69.7078 37.5879" fill="white"/>
<path fill-rule="evenodd" clip-rule="evenodd" d="M63.903 39.3122C64.0059 38.8817 64.2684 38.5058 64.6359 38.2601C65.2176 37.9577 66.2445 38.237 66.9165 37.8926C66.6939 38.804 65.9715 39.5075 65.0559 39.7091C64.6401 39.7007 64.239 39.5621 63.9093 39.3101" fill="white"/>
<path fill-rule="evenodd" clip-rule="evenodd" d="M59.5602 46.4606C60.3435 45.7067 61.3788 45.2741 62.4645 45.251C64.0689 45.3875 65.835 47.3237 67.6746 47.4812C66.0114 49.0793 63.5838 49.5917 61.4166 48.7979C60.5682 48.233 59.9193 47.4161 59.5602 46.4606Z" fill="white"/>
<path fill-rule="evenodd" clip-rule="evenodd" d="M66.381 43.8646C67.0425 43.2283 67.9203 42.8629 68.838 42.8398C70.1967 42.9574 71.6919 44.5933 73.2501 44.7256C71.8431 46.0801 69.7872 46.5148 67.9539 45.8428C67.2315 45.3661 66.6792 44.6731 66.3747 43.8646" fill="white"/>
<path fill-rule="evenodd" clip-rule="evenodd" d="M74.4363 43.2495C75.0579 42.651 75.879 42.3087 76.7421 42.2856C78.0168 42.3969 79.4196 43.932 80.8791 44.0559C79.5624 45.3264 77.6346 45.7359 75.9147 45.108C75.2406 44.6607 74.724 44.0118 74.4384 43.2537" fill="white"/>
<path d="M7.0035 51.3578C6.9447 50.8265 6.9888 50.3309 7.14 49.871C7.2912 49.4111 7.5285 49.0037 7.8519 48.6467C8.1774 48.2897 8.5722 47.9999 9.0405 47.7752C9.5088 47.5505 10.0317 47.4077 10.6092 47.3426L10.7289 47.33C11.3043 47.267 11.844 47.2922 12.348 47.4077C12.8541 47.5232 13.3035 47.7185 13.7004 47.9936C14.0973 48.2666 14.4186 48.6131 14.6664 49.0289C14.9142 49.4447 15.0675 49.9172 15.1263 50.4506C15.1851 50.9861 15.141 51.4859 14.9919 51.9479C14.8407 52.412 14.6034 52.8215 14.2779 53.1806C13.9524 53.5376 13.5555 53.8316 13.0872 54.0563C12.6189 54.281 12.0981 54.4259 11.5227 54.491L11.403 54.5036C10.8234 54.5666 10.2816 54.5414 9.7776 54.4238C9.2715 54.3062 8.8221 54.1088 8.4252 53.8295C8.0304 53.5502 7.7091 53.2037 7.4613 52.7858C7.2156 52.37 7.0623 51.8933 7.0035 51.3578ZM8.2341 51.2213C8.2845 51.6686 8.442 52.0277 8.7045 52.2986C8.9691 52.5695 9.3177 52.7564 9.7503 52.8614C10.1829 52.9664 10.6743 52.9874 11.2287 52.9244L11.3589 52.9097C11.9049 52.8488 12.3753 52.7207 12.7743 52.5212C13.1712 52.3238 13.4694 52.0634 13.6668 51.7379C13.8642 51.4145 13.9398 51.0302 13.8894 50.585C13.8411 50.144 13.6857 49.7891 13.4232 49.5224C13.1607 49.2536 12.8163 49.0709 12.3879 48.9701C11.9595 48.8693 11.4681 48.8504 10.9158 48.9113L10.7856 48.926C10.2333 48.9869 9.7566 49.115 9.3555 49.3061C8.9565 49.4993 8.6583 49.7555 8.4588 50.0768C8.2614 50.4002 8.1858 50.7803 8.2341 51.2213Z" fill="white"/>
<path d="M7.86243 56.3599L8.86623 56.0638L15.4035 58.1701L14.7189 55.8517L13.7088 56.0197L13.3644 54.8521L15.5337 54.2788L17.1381 59.701L16.1637 59.9887L9.58653 57.8761L10.3719 60.5284L11.382 60.3667L11.7264 61.528L9.55293 62.0677L7.86243 56.3599Z" fill="white"/>
<path d="M11.5206 66.6417C11.2812 66.1629 11.1531 65.682 11.1342 65.199C11.1153 64.716 11.1972 64.2519 11.3778 63.8046C11.5584 63.3573 11.8293 62.9478 12.1905 62.5761C12.5517 62.2044 12.9927 61.8873 13.5135 61.6269L13.6206 61.5723C14.1372 61.314 14.6538 61.1502 15.1683 61.0851C15.6828 61.0179 16.1721 61.0473 16.6404 61.167C17.1066 61.2867 17.5287 61.4988 17.9046 61.8033C18.2805 62.1078 18.5892 62.4984 18.8286 62.9772C19.0701 63.4581 19.2003 63.9432 19.2192 64.4283C19.2381 64.9134 19.1583 65.3817 18.9756 65.8311C18.7929 66.2805 18.522 66.6921 18.1629 67.0659C17.8038 67.4397 17.3628 67.7568 16.8462 68.0151L16.7391 68.0697C16.2183 68.3301 15.7017 68.4939 15.1851 68.5569C14.6706 68.622 14.1792 68.5926 13.713 68.4666C13.2447 68.3427 12.8247 68.1264 12.4467 67.8219C12.0708 67.5174 11.7621 67.1226 11.5206 66.6417ZM12.6273 66.0852C12.8289 66.4884 13.0998 66.7719 13.4421 66.9336C13.7844 67.0953 14.175 67.1499 14.6181 67.0995C15.0591 67.047 15.5295 66.8958 16.0272 66.648L16.1448 66.5892C16.6362 66.3435 17.0331 66.0579 17.3376 65.7345C17.6421 65.4111 17.8311 65.0646 17.9046 64.6908C17.9781 64.317 17.9151 63.9327 17.7156 63.5316C17.5161 63.1347 17.2473 62.8575 16.9092 62.6958C16.5711 62.5341 16.1826 62.4816 15.7458 62.5362C15.309 62.5908 14.8407 62.742 14.343 62.9919L14.2254 63.0507C13.7277 63.3006 13.3245 63.5841 13.0158 63.9033C12.7071 64.2225 12.516 64.5669 12.4404 64.9365C12.3669 65.3061 12.4299 65.6904 12.6273 66.0852Z" fill="white"/>
<path d="M14.0507 71.184L14.8004 70.5918L15.4535 71.1546L19.9328 67.6224L19.538 66.858L20.2919 66.2637L20.8148 66.9273L21.8144 68.1957L19.6283 74.3256L19.6535 74.3487L23.0954 71.6355L22.5956 70.7367L23.3495 70.1424L24.8594 72.0576L25.3865 72.7254L24.6326 73.3197L23.9774 72.7527L18.6203 76.9758L17.6669 75.7662L19.7627 69.6111L19.7375 69.588L16.3334 72.2718L16.8374 73.1748L16.0877 73.7649L14.0507 71.184Z" fill="white"/>
<path d="M20.2206 78.6409L20.8422 77.9164L21.5898 78.3427L25.3047 74.0167L24.7692 73.3405L25.395 72.6118L30.0738 76.6291L28.6773 78.2566L27.7491 77.4607L28.293 76.7194L26.445 75.1339L25.1451 76.6501L27.1863 78.4015L26.3862 79.3339L24.345 77.5825L22.8666 79.3045L24.8133 80.9761L25.4853 80.302L26.4051 81.0916L24.9897 82.7401L20.2206 78.6409Z" fill="white"/>
<path d="M31.3698 86.7533L32.4156 79.6847L31.7016 79.2878L32.0817 78.4058L35.0175 79.6742L34.6374 80.5562L33.8016 80.3315L33.1254 84.248L32.9994 84.9662L33.0309 84.9788L33.4971 84.4076L36.9033 80.4869L37.9806 80.951L37.4619 86.2682L37.3884 86.9192L37.4199 86.9318L37.8189 86.4215L40.2927 83.1329L39.5115 82.6583L39.8916 81.7763L42.7728 83.0216L42.3927 83.9036L41.664 83.6768L37.212 89.2754L35.889 88.7042L36.3489 83.8427L36.4329 83.1665L36.4035 83.1539L35.9394 83.6915L32.7075 87.3308L31.3698 86.7533Z" fill="white"/>
<path d="M41.3028 90.5018L41.4645 89.561L42.3255 89.5421L43.2936 83.9225L42.4872 83.618L42.651 82.6709L48.7284 83.7167L48.3651 85.8293L47.1597 85.6214L47.2458 84.7058L44.8476 84.2921L44.5074 86.2619L47.1597 86.7176L46.9518 87.9272L44.3016 87.4715L43.9152 89.708L46.4436 90.1427L46.6746 89.2187L47.8674 89.4245L47.4999 91.5644L41.3028 90.5018Z" fill="white"/>
<path d="M49.1698 91.6674L49.1845 90.7119L50.0329 90.5628L50.1253 84.8613L49.2811 84.6828L49.2958 83.7231L50.1421 83.7357L51.736 83.7609L52.6957 83.7756L52.681 84.7353L51.7171 84.8844L51.6268 90.483L53.8696 90.5187L53.9641 89.3574L55.18 89.3763L55.1422 91.7619L49.1698 91.6674Z" fill="white"/>
<path d="M56.4118 91.6277L56.2648 90.6848L57.0754 90.3929L56.1955 84.7586L55.3345 84.7271L55.1854 83.7779L56.0212 83.6477L57.5962 83.402L58.5454 83.2529L58.6945 84.2021L57.7705 84.5108L58.6336 90.0422L60.8491 89.6978L60.7462 88.5365L61.9495 88.3496L62.317 90.7058L56.4118 91.6277Z" fill="white"/>
<path d="M63.7494 90.4472L63.4281 89.5484L64.1694 89.1095L62.2499 83.7377L61.3995 83.8679L61.076 82.9628L61.872 82.6793L63.3945 82.1354L68.508 86.1611L68.5373 86.1443L67.0632 82.0178L66.0531 82.2047L65.7297 81.2996L68.0271 80.4785L68.8293 80.1929L69.1526 81.098L68.4072 81.539L70.7024 87.9629L69.2535 88.4816L64.0874 84.5336L64.0581 84.5483L65.5155 88.6286L66.5319 88.4396L66.8532 89.3384L63.7494 90.4472Z" fill="white"/>
<path d="M72.7566 86.9863L72.2652 86.1673L72.9078 85.5919L69.9846 80.6968L69.174 80.9908L68.6805 80.1655L73.9746 77.0029L75.075 78.8446L74.025 79.4704L73.4937 78.7186L71.4042 79.966L72.429 81.6817L74.739 80.302L75.369 81.3562L73.059 82.7359L74.2224 84.6847L76.4253 83.3701L75.999 82.5175L77.0385 81.8959L78.1515 83.7607L72.7566 86.9863Z" fill="white"/>
<path d="M82.0558 80.76C81.6106 81.1422 81.1633 81.4383 80.7139 81.6525C80.2645 81.8667 79.7563 82.0011 79.1935 82.0599L77.9419 80.6025L78.8764 79.8003L79.7395 80.5458C79.9537 80.5437 80.1973 80.4828 80.4724 80.3589C80.7454 80.2371 81.0121 80.0649 81.2683 79.8444C81.4867 79.6575 81.6442 79.4685 81.7429 79.2795C81.8416 79.0905 81.8815 78.9057 81.8647 78.7251C81.8479 78.5466 81.7744 78.3807 81.6442 78.2274C81.5203 78.0846 81.3754 77.988 81.2095 77.9355C81.0436 77.8851 80.8399 77.8809 80.5984 77.9271C80.359 77.9733 80.0629 78.072 79.7122 78.2232C79.1137 78.492 78.5866 78.6789 78.1288 78.7797C77.6731 78.8826 77.2657 78.8826 76.9108 78.7839C76.5538 78.6852 76.2367 78.471 75.9532 78.1413C75.6739 77.8158 75.5164 77.4504 75.4828 77.0451C75.4492 76.6398 75.5311 76.2282 75.7285 75.8103C75.9259 75.3924 76.2325 74.9997 76.6462 74.6343C77.104 74.2311 77.5639 73.9329 78.0196 73.7418C78.4774 73.5507 78.9247 73.4478 79.3615 73.4331L80.527 74.7918L79.6198 75.5709L78.7504 74.8779C78.5887 74.901 78.3976 74.9661 78.1771 75.069C77.9566 75.1719 77.7319 75.321 77.5072 75.5163C77.314 75.6822 77.167 75.8565 77.0704 76.0434C76.9717 76.2282 76.9276 76.413 76.9381 76.5957C76.9465 76.7805 77.02 76.9506 77.1544 77.1081C77.2699 77.2425 77.4085 77.3286 77.5702 77.3664C77.7319 77.4042 77.9377 77.3916 78.1897 77.3307C78.4417 77.2698 78.7672 77.1585 79.1641 76.9947C79.9894 76.6083 80.7034 76.4193 81.3061 76.4277C81.9109 76.4361 82.4254 76.6881 82.8496 77.1816C83.1436 77.5239 83.3053 77.8998 83.3347 78.3072C83.3641 78.7167 83.2717 79.1325 83.0533 79.5546C82.837 79.9725 82.5031 80.3757 82.0558 80.76Z" fill="white"/>
<path d="M87.36 75.3504C86.9841 75.7998 86.5935 76.1673 86.184 76.4508C85.7745 76.7364 85.2978 76.9527 84.7497 77.1018L83.2755 75.8712L84.0672 74.9241L85.0416 75.5184C85.2537 75.4806 85.4847 75.3798 85.7325 75.2139C85.9824 75.048 86.2155 74.8359 86.4318 74.5755C86.6166 74.355 86.7405 74.1429 86.8077 73.9392C86.8728 73.7355 86.8833 73.5465 86.8371 73.3722C86.7909 73.1979 86.6901 73.0467 86.5368 72.9186C86.3919 72.7968 86.2323 72.7254 86.0601 72.7023C85.8879 72.6792 85.6863 72.7107 85.4553 72.7947C85.2243 72.8787 84.9513 73.0257 84.63 73.2336C84.084 73.5969 83.5947 73.8678 83.16 74.0442C82.7253 74.2206 82.3242 74.2878 81.9567 74.2479C81.5892 74.208 81.2385 74.0505 80.9067 73.7733C80.577 73.4982 80.3628 73.1643 80.262 72.7695C80.1633 72.3768 80.1759 71.9568 80.2998 71.5116C80.4258 71.0664 80.6631 70.6296 81.0117 70.2012C81.3981 69.7266 81.8013 69.3591 82.2213 69.0945C82.6413 68.832 83.0655 68.6556 83.4939 68.5674L84.8673 69.714L84.1008 70.6317L83.1306 70.092C82.9752 70.1424 82.7967 70.2369 82.5972 70.3734C82.3956 70.512 82.2003 70.6947 82.0092 70.9236C81.8454 71.1189 81.7299 71.3163 81.6648 71.5137C81.5976 71.7132 81.585 71.9022 81.6249 72.0807C81.6648 72.2613 81.7635 72.4167 81.9231 72.5511C82.0596 72.6645 82.2108 72.7275 82.3746 72.738C82.5405 72.7485 82.7421 72.7023 82.9794 72.5994C83.2188 72.4986 83.5191 72.3327 83.8845 72.108C84.6342 71.5914 85.3083 71.2869 85.9047 71.1966C86.5032 71.1063 87.0513 71.268 87.5511 71.6859C87.8976 71.9757 88.1181 72.3201 88.2147 72.717C88.3113 73.116 88.2861 73.5402 88.1412 73.9917C88.0005 74.4453 87.738 74.8968 87.36 75.3504Z" fill="white"/>
<path d="M93.1581 66.4193C92.8977 66.9422 92.6016 67.3916 92.2698 67.7633C91.938 68.135 91.5243 68.4563 91.0266 68.7293L89.3067 67.8725L89.8569 66.7679L90.9426 67.1207C91.14 67.0346 91.3395 66.8834 91.5453 66.665C91.749 66.4445 91.9275 66.1841 92.0787 65.8817C92.2068 65.6255 92.2782 65.3903 92.295 65.1761C92.3118 64.964 92.2761 64.7771 92.1921 64.6196C92.106 64.4621 91.9737 64.3361 91.7952 64.2479C91.6251 64.1639 91.455 64.1303 91.2807 64.1471C91.1064 64.1639 90.9195 64.2416 90.7158 64.3781C90.5121 64.5146 90.279 64.7204 90.0144 64.9955C89.5671 65.4764 89.1534 65.8523 88.7733 66.1232C88.3932 66.3941 88.0173 66.5537 87.6519 66.602C87.2865 66.6482 86.9085 66.5768 86.52 66.3836C86.1357 66.1925 85.8501 65.9174 85.6611 65.5562C85.4721 65.195 85.3881 64.7855 85.407 64.3214C85.4259 63.8573 85.5561 63.3785 85.7955 62.8808C86.0622 62.3306 86.3688 61.8791 86.7153 61.5242C87.0618 61.1714 87.4335 60.9005 87.8304 60.7178L89.4327 61.5158L88.8993 62.5847L87.8304 62.2844C87.6897 62.3684 87.5385 62.5028 87.3768 62.6834C87.213 62.864 87.066 63.0887 86.9316 63.3554C86.8182 63.5843 86.751 63.8027 86.7342 64.0106C86.7153 64.2185 86.7468 64.4054 86.8266 64.5713C86.9064 64.7372 87.0387 64.8653 87.2256 64.9577C87.3852 65.0375 87.5469 65.0627 87.7086 65.0354C87.8724 65.006 88.0572 64.9157 88.2651 64.7603C88.473 64.607 88.7292 64.376 89.0316 64.0715C89.6406 63.3953 90.2244 62.9438 90.7851 62.717C91.3458 62.4902 91.917 62.5217 92.4987 62.8115C92.9019 63.0131 93.198 63.2945 93.3828 63.6599C93.5697 64.0253 93.6432 64.4432 93.6075 64.9178C93.5718 65.3903 93.4227 65.8922 93.1581 66.4193Z" fill="white"/>
<path d="M94.9074 62.4185L93.9918 62.1455L94.0758 61.2887L88.6095 59.6633L88.2105 60.4277L87.2907 60.1547L87.5322 59.3441L88.3701 56.5301C88.5444 55.9484 88.7943 55.4759 89.124 55.1147C89.4537 54.7535 89.8338 54.5141 90.2664 54.3944C90.699 54.2768 91.1568 54.2894 91.6419 54.4343C92.127 54.5771 92.5176 54.8186 92.8137 55.1525C93.1098 55.4864 93.2967 55.8959 93.3723 56.3768C93.4479 56.8577 93.3975 57.3911 93.2253 57.9728L92.841 59.2601L94.5315 59.7641L94.9305 58.9955L95.8461 59.2685L94.9074 62.4185ZM91.6629 58.9094L92.0451 57.6221C92.1711 57.1958 92.1522 56.8409 91.9842 56.5532C91.8162 56.2676 91.5537 56.0702 91.1946 55.9631C90.8292 55.8539 90.4932 55.8728 90.1908 56.0198C89.8863 56.1668 89.6721 56.4524 89.544 56.8787L89.1618 58.166L91.6629 58.9094Z" fill="white"/>
<path d="M96.8436 56.0703L95.8965 55.9464L95.8881 55.3731L89.3634 51.9753L89.5755 50.3583L96.7512 48.7623L96.9045 48.21L97.8516 48.3339L97.5009 51.0177L96.5538 50.8938L96.5286 50.3352L95.4009 50.5389L95.0397 53.3109L96.0771 53.7981L96.2451 53.2647L97.1922 53.3886L96.8436 56.0703ZM93.9267 52.7838L94.1892 50.7594L91.3689 51.3264L91.1211 51.3705L91.1169 51.4041L91.3605 51.5175L93.9267 52.7838Z" fill="white"/>
</svg>
