<svg width="157" height="236" viewBox="0 0 157 236" fill="none" xmlns="http://www.w3.org/2000/svg">
<path d="M109.094 126.563C113.866 128.798 119.124 130.411 124.104 132.508C129.222 134.813 134.625 134.834 140.028 134.854C140.929 134.858 142.038 134.723 142.801 134.519C143.701 134.522 144.393 134.663 145.156 134.458C145.919 134.253 146.954 135.366 147.791 133.914C141.843 131.259 135.758 128.396 129.74 126.087C120.677 122.797 111.336 119.99 102.415 116.008C100.755 115.309 98.8865 114.748 97.0182 114.186C96.326 114.045 95.5667 113.35 95.0088 114.317C100.056 116.969 104.757 119.55 110.153 121.371C110.983 121.721 112.021 121.933 112.643 122.42C116.03 124.372 119.346 126.671 123.291 127.656C124.192 127.659 124.535 128.63 124.948 129.255C124.531 129.531 124.323 129.669 124.323 129.669C121.346 129.242 118.022 128.744 115.536 126.795C113.671 125.333 111.527 124.355 109.175 123.515C105.301 122.184 101.497 120.507 97.764 118.484C95.9663 117.577 94.1686 116.669 92.3709 115.762C92.0248 115.691 91.4704 115.759 90.5698 115.755C91.3964 117.005 92.3641 117.563 93.3318 118.121C98.3788 120.773 103.701 123.841 109.094 126.563Z" fill="#EAAE68"/>
<path d="M-14.3643 93.8107C-15.9673 96.3678 -17.708 98.7165 -18.135 101.694C-18.777 106.61 -19.8358 111.801 -21.5162 116.505C-22.4976 119.55 -21.8156 122.393 -20.7875 125.306C-17.5315 125.249 -15.0313 123.596 -13.4989 121.385C-11.4792 118.552 -10.0812 115.233 -10.4136 111.56C-10.5412 108.65 -10.4603 105.602 -10.7256 102.484C-11.0615 99.7115 -11.7435 96.8687 -12.0793 94.0965C-12.0087 93.7504 -12.6304 93.2631 -12.9765 93.1925C-13.5309 93.2597 -14.2937 93.4646 -14.3643 93.8107Z" fill="#EAAE68"/>
<path d="M57.8013 117.36C59.3166 119.652 61.0403 121.806 62.6263 123.751C64.2122 125.697 65.7981 127.643 67.1757 129.726C69.7931 133.685 73.5228 136.608 77.7398 138.91C78.5698 139.26 79.0536 139.539 79.8198 138.433C79.131 137.392 78.4423 136.35 77.7535 135.308C73.6879 129.612 69.8306 123.779 65.4861 118.567C61.1416 113.355 56.1015 108.902 50.6447 104.725C48.9176 103.471 47.1199 102.564 44.7643 102.624C46.9719 105.057 48.7627 107.766 50.9031 109.644C54.2196 111.943 56.0104 114.651 57.8013 117.36Z" fill="#EAAE68"/>
<path d="M73.0526 95.5983C76.7254 95.2659 80.2638 93.8245 83.7989 93.2837C87.3339 92.7429 90.1163 89.7054 94.9652 89.7931C91.6317 91.9972 89.1987 94.2047 86.0098 94.8161C83.3753 95.3603 80.8786 96.1129 78.3819 96.8654C78.5163 97.9743 79.4168 97.9777 80.1796 97.7728C83.4391 96.8153 86.628 96.2039 89.8875 95.2465C96.1982 93.4692 100.718 88.9836 106.273 85.6102C106.481 85.4724 106.481 85.4724 106.689 85.3347C107.593 84.4375 107.738 82.8448 107.325 82.2197C106.636 81.178 105.456 81.6585 104.694 81.8634C99.4918 83.5063 94.0817 85.2869 89.0177 87.1381C80.6236 90.2929 72.7805 94.2811 64.1143 96.1186C63.7682 96.0481 63.2809 96.6697 62.4476 97.2207C66.1169 97.7888 69.5176 96.1391 73.0526 95.5983Z" fill="#EAAE68"/>
<path d="M45.6777 80.4605C41.0907 84.3917 36.1576 88.2524 30.9456 92.5969C34.1311 92.886 36.4901 91.9251 38.849 90.9642C44.2626 88.2831 49.4006 85.1852 54.1253 81.4623C55.7921 80.3602 57.321 79.0498 58.1578 77.5983C59.6937 74.4867 61.9888 72.0709 63.8002 69.376C64.2875 68.7544 64.4286 68.0622 64.711 66.6778C63.1854 67.0877 62.0765 67.222 61.2431 67.773C58.9513 69.2884 56.7973 71.0121 54.8516 72.598C51.4475 75.1482 48.7357 77.8396 45.6777 80.4605Z" fill="#EAAE68"/>
<path d="M-3.94919 106.387C-2.84712 108.054 -2.09115 109.65 -1.40577 111.592C0.788127 117.628 3.11979 123.871 5.31369 129.906C6.34176 132.82 7.78652 135.458 10.1318 138.099C11.5231 136.58 11.4593 135.125 11.1872 133.808C10.9857 132.145 10.3675 130.757 10.1659 129.093C9.76291 125.767 8.80542 122.507 7.43125 119.523C5.43887 115.151 3.23814 110.917 0.829074 106.821C-0.891204 103.766 -3.23651 101.125 -5.37348 98.3461C-5.78675 97.7211 -6.27061 97.4422 -7.31233 98.131C-6.07591 100.907 -5.39395 103.749 -3.94919 106.387Z" fill="#EAAE68"/>
<path d="M9.34187 72.1475C7.88346 73.1118 6.70057 74.4928 5.37993 75.6654C1.55574 79.3917 -1.85517 83.7431 -7.33928 86.7703C-4.84598 86.9183 -3.59592 86.0918 -2.34586 85.2652C-1.09579 84.4387 0.224849 83.266 1.61267 82.6478C9.17681 79.1435 15.6389 73.9724 22.3059 69.5642C24.806 67.9111 26.0629 65.2834 26.6982 62.1685C25.2466 61.3317 24.3426 62.2288 23.5092 62.7799C18.7879 65.6022 13.996 68.7707 9.34187 72.1475Z" fill="#EAAE68"/>
<path d="M37.107 111.878C37.9267 114.929 38.7464 117.98 40.7456 120.551C41.4344 121.593 41.7065 122.91 41.9786 124.227C42.5194 127.762 44.3103 130.471 46.3095 133.042C47.6871 135.125 48.517 135.475 49.5588 134.786C50.8794 133.613 50.1906 132.571 49.7102 131.392C47.6506 126.466 45.5911 121.539 43.1854 116.543C42.8427 115.571 42.0833 114.876 41.8784 114.113C39.261 110.154 36.6436 106.196 34.0262 102.237C33.6129 101.612 32.8535 100.917 32.027 99.6667C32.7761 103.064 33.6664 105.769 35.3195 108.269C36.2167 109.173 36.8349 110.561 37.107 111.878Z" fill="#EAAE68"/>
<path d="M77.823 97.8338C78.0313 97.696 78.1019 97.3499 78.3102 97.2122C75.5346 98.4486 72.2819 97.605 68.6729 99.3924C72.2045 99.7522 75.0473 99.0702 77.823 97.8338Z" fill="#EAAE68"/>
<path fill-rule="evenodd" clip-rule="evenodd" d="M-18.1064 93.5916C-21.2919 93.3025 -37.364 93.4494 -40.3446 93.923C-41.4535 94.0573 -42.4246 94.4 -43.3957 94.7427C-42.8481 96.4767 -41.3259 96.9673 -40.2911 98.0796C-36.0103 101.837 -32.9796 106.42 -31.7534 111.898C-31.3436 113.423 -30.9337 114.949 -30.7322 116.612C-30.6684 118.067 -30.6047 119.522 -30.887 120.906C-31.7306 124.159 -33.1287 127.479 -33.9017 130.386C-36.469 131.484 -38.6196 132.307 -40.9786 133.268C-41.6002 132.781 -42.4302 132.431 -42.9812 131.598C-45.6692 127.986 -47.5944 124.168 -48.4779 119.662C-49.2202 114.464 -51.6964 109.813 -54.1727 105.162C-54.5154 104.191 -55.4125 103.287 -56.1719 102.592C-57.6906 101.2 -59.2094 99.8091 -60.8659 98.2095C-70.7788 99.9731 -80.5573 102.846 -89.4455 108.423C-89.7882 107.452 -90.272 107.173 -90.4098 106.965C-90.6147 106.202 -90.8197 105.439 -91.0246 104.676C-88.6588 101.914 -85.8126 100.332 -82.5531 99.3743C-80.0564 98.6217 -77.5597 97.8692 -75.2007 96.9083C-72.0789 95.7424 -68.8194 94.7849 -65.6305 94.1736C-62.4416 93.5622 -59.3199 92.3963 -55.8554 92.2016C-55.301 92.1345 -54.4676 91.5834 -53.9803 90.9618C-49.7326 85.1589 -44.45 80.4683 -39.5807 75.1527C-38.6062 73.9094 -37.1478 72.9451 -35.8977 72.1186C-30.2724 68.3991 -24.8555 64.8173 -19.2302 61.0979C-17.1468 59.7203 -14.7878 58.7594 -12.2911 58.0068C-9.37768 56.9788 -6.95839 58.3734 -7.03921 61.4212C-7.04945 64.1228 -7.40578 66.7539 -9.49263 69.032C-12.7624 72.6911 -15.9615 76.0042 -20.0578 78.4132C-22.9041 79.9957 -25.2664 81.8572 -28.1126 83.4397C-29.7794 84.5418 -31.7217 85.2272 -33.5262 86.1209C-34.4973 86.4636 -35.539 87.1524 -37.1352 87.9083C-35.9591 88.3284 -35.4753 88.6074 -34.9208 88.5402C-30.5558 88.3489 -25.9825 88.0199 -21.6175 87.8286C-19.262 87.7682 -17.1785 86.3906 -14.5475 86.747C-14.2014 86.8176 -13.368 86.2665 -12.9513 85.991C-8.92219 83.0275 -4.61756 80.4807 -1.41499 76.2671C2.48319 71.2941 7.27851 67.2251 12.971 64.0601C15.8172 62.4776 18.3173 60.8245 20.888 58.8253C23.2504 56.9638 25.8143 56.7657 28.5159 56.776C31.2176 56.7862 33.3545 59.5653 32.306 62.0551C29.9334 66.6182 27.8363 71.598 22.9772 74.212C20.131 75.7945 17.6309 77.4476 14.9224 79.2385C11.3806 81.5804 7.97647 84.1306 3.60808 85.2225C2.4286 85.7029 1.38688 86.3917 0.207404 86.8722C3.31891 88.408 18.2047 90.5426 26.7229 91.1983C28.7392 89.2663 30.6883 86.7798 33.0507 84.9184C36.1086 82.2976 39.5127 79.7473 42.5707 77.1265C45.4204 74.6434 48.1322 71.952 51.1196 69.6773C53.8987 67.5403 56.6777 65.4034 59.5946 63.4747C61.4697 62.2349 63.4791 62.104 65.4885 61.973C66.043 61.9059 67.219 62.326 67.4946 62.7427C69.6349 64.6212 70.1791 67.2556 68.7845 69.6749C65.5079 75.1352 62.5775 80.666 56.6767 83.9688C52.0259 86.445 47.8557 90.1007 42.5833 92.0897C41.8205 92.2946 41.1249 93.054 40.0832 93.7428C42.9863 95.4164 45.063 95.8399 47.9729 95.7124C52.4757 95.7294 56.7063 94.4293 61.0747 93.3374C69.7409 91.4999 77.9301 87.5823 86.1159 84.5652C91.7343 82.6469 97.4905 80.9368 103.317 78.8807C104.08 78.6757 104.843 78.4708 105.743 78.4742C109.278 77.9334 111.899 80.9914 110.847 84.3818C110.078 86.3879 109.17 88.1856 107.295 89.4254C103.545 91.905 99.7949 94.3847 96.253 96.7266C95.003 97.5531 93.2691 98.1008 91.7435 98.5106C86.9584 99.878 82.1027 101.591 76.975 101.988C76.0744 101.984 75.241 102.535 73.3693 102.875C74.8209 103.711 75.6509 104.061 76.4808 104.41C79.8713 105.462 83.4701 106.377 87.0689 107.291C94.337 108.773 101.464 110.947 108.45 113.814C114.743 116.54 121.387 118.435 127.751 120.815C131.763 122.354 135.775 123.893 139.787 125.432C143.453 126.901 146.702 128.645 150.23 129.905C152.236 130.675 153.547 132.204 154.787 134.079C155.405 135.467 155.052 137.198 153.664 137.816C151.513 138.639 149.292 139.808 146.869 139.314C145.277 139.169 143.613 139.371 142.158 139.435C138.21 139.35 134.262 139.266 130.314 139.182C129.067 139.108 128.237 138.759 127.061 138.338C120.213 135.68 113.294 133.368 106.654 130.572C102.505 128.824 98.8421 126.455 95.4585 123.602C92.8342 121.444 90.0722 119.079 87.2397 117.059C83.3016 114.273 79.5013 111.696 75.5632 108.91C75.0794 108.631 74.5955 108.352 73.9033 108.211C71.8973 107.441 61.7897 105.74 58.742 105.659C59.6391 106.563 60.1902 107.397 60.9495 108.092C67.3001 114.074 72.955 120.815 77.7765 128.107C79.8429 131.232 81.7715 134.149 83.6296 137.412C84.1806 138.245 84.7317 139.079 85.1449 139.704C86.1764 141.716 85.1313 143.306 82.9841 143.228C81.0452 143.013 79.1064 142.798 77.3087 141.891C72.2617 139.239 67.4937 136.104 64.1169 131.45C62.4638 128.95 60.1857 126.863 58.3242 124.5C56.8761 122.763 55.2901 120.817 54.0503 118.942C52.535 116.65 51.1574 114.567 49.017 112.688C47.9115 111.922 47.2933 110.534 46.4668 109.284C45.6402 108.034 44.4676 106.714 42.1826 106.428C47.1487 112.127 49.2015 118.855 52.2253 125.239C53.119 127.044 53.8044 128.986 54.6982 130.79C54.9737 131.207 55.0408 131.762 54.9703 132.108C55.4473 134.188 55.1615 136.473 53.6325 137.783C51.8952 139.231 49.5397 139.292 47.3253 138.66C46.6331 138.519 45.8737 137.823 45.4604 137.198C42.9808 133.448 40.2928 129.835 38.9254 125.05C37.5581 120.265 34.6652 115.89 33.7145 110.829C31.4398 107.842 30.5529 104.236 30.0121 100.701C29.4679 98.0669 28.2246 97.0923 25.5936 96.736C18.0465 95.7375 10.3617 94.5308 3.02292 93.3946C1.63851 93.1122 0.254099 92.8299 -1.13372 93.4481C0.932657 96.5733 2.99904 99.6984 4.92766 102.615C8.50938 108.032 11.4661 113.862 13.66 119.898C14.4831 122.048 14.8896 124.474 15.296 126.9C15.7059 128.426 15.5613 130.019 15.9712 131.544C16.8615 134.249 16.2296 136.464 15.5272 139.024C14.9659 140.892 13.5075 141.857 11.7736 142.404C9.90188 142.744 8.4503 141.907 7.34823 140.24C5.1441 136.907 2.93997 133.573 1.70697 129.897C0.0640999 124.695 -2.13321 119.561 -4.12218 114.288C-4.32711 113.525 -4.94874 113.038 -5.56694 111.65C-5.98704 112.826 -6.33655 113.656 -6.26939 114.211C-6.55855 117.396 -8.09437 120.508 -9.83512 122.857C-12.3421 126.311 -16.23 128.582 -20.7328 128.565C-22.1878 128.629 -23.431 127.654 -23.8408 126.129C-24.7949 121.969 -25.6112 118.017 -24.1392 113.45C-22.8083 109.576 -21.9613 105.423 -20.9765 101.478C-20.4118 98.7092 -19.6388 95.8026 -17.6225 93.8705C-18.0392 94.1461 -18.177 93.9377 -18.1064 93.5916ZM78.1715 97.0044C78.3058 98.1133 78.998 98.2545 79.7608 98.0496C83.0203 97.0921 86.2092 96.4807 89.4688 95.5232C95.7794 93.746 100.299 89.2603 105.854 85.887C106.062 85.7492 106.062 85.7492 106.271 85.6114C107.175 84.7143 107.319 83.1215 106.906 82.4965C106.217 81.4548 105.038 81.9352 104.275 82.1402C99.073 83.783 93.6629 85.5637 88.5989 87.4149C80.2048 90.5697 72.3617 94.5579 63.6955 96.3954C63.3494 96.3248 62.8622 96.9464 62.0288 97.4975C66.3232 97.6523 69.5155 96.1404 73.0505 95.5996C76.7233 95.2671 80.2618 93.8258 83.7968 93.285C87.3318 92.7442 90.1142 89.7067 94.9631 89.7943C91.6296 91.9984 89.1966 94.206 86.0077 94.8174C83.3027 95.7077 80.806 96.4602 78.1715 97.0044C75.1875 98.3786 71.9348 97.535 68.4636 99.5308C72.2035 99.7528 75.0463 99.0708 77.822 97.8344C78.0303 97.6966 78.1009 97.3505 78.1715 97.0044ZM-46.5721 110.317C-47.2609 109.276 -47.9497 108.234 -48.6385 107.192C-48.5747 108.647 -47.8859 109.689 -46.5721 110.317C-46.6427 110.663 -46.9216 111.147 -47.1299 111.285C-46.5185 114.474 -45.6282 117.179 -45.1546 120.16C-44.6138 123.695 -42.8935 126.749 -40.2021 129.461C-39.5771 129.048 -39.1604 128.772 -38.5354 128.359C-35.8235 125.668 -35.0471 121.86 -35.2418 118.396C-35.2281 114.794 -36.2528 110.98 -38.2486 107.509C-41.2087 102.579 -45.56 99.1681 -50.8859 97.0004C-51.3697 96.7215 -52.0619 96.5803 -52.6198 97.548C-46.9615 103.388 -44.0116 111.02 -39.7479 119.28C-41.1995 118.443 -41.8917 118.302 -42.0295 118.093C-43.6154 116.148 -44.993 114.064 -46.3706 111.981C-46.5755 111.218 -46.6427 110.663 -46.5721 110.317ZM90.432 115.547C91.2586 116.797 92.2263 117.355 93.194 117.913C98.3787 120.773 103.701 123.841 109.165 126.217C113.936 128.452 119.195 130.065 124.175 132.162C129.292 134.468 134.696 134.488 140.099 134.508C140.999 134.512 142.108 134.378 142.871 134.173C143.772 134.176 144.464 134.317 145.227 134.112C145.989 133.907 147.024 135.02 147.861 133.568C141.914 130.913 135.828 128.05 129.81 125.741C120.748 122.451 111.406 119.644 102.485 115.662C100.825 114.963 98.957 114.402 97.0888 113.84C96.3966 113.699 95.6372 113.004 95.0793 113.971C100.126 116.623 104.827 119.204 110.224 121.025C111.054 121.375 112.092 121.587 112.713 122.074C116.101 124.026 119.417 126.325 123.362 127.31C124.192 127.659 124.534 128.63 124.948 129.256C124.531 129.531 124.323 129.669 124.323 129.669C121.346 129.242 118.022 128.744 115.536 126.795C113.671 125.333 111.527 124.355 109.175 123.515C105.301 122.184 101.497 120.507 97.7639 118.484C95.9662 117.577 94.1685 116.67 92.3708 115.762C91.887 115.483 91.4703 115.759 90.432 115.547ZM-20.7897 125.309C-17.5336 125.252 -15.0335 123.599 -13.5011 121.388C-11.4814 118.555 -10.0833 115.235 -10.4158 111.563C-10.5433 108.653 -10.4625 105.605 -10.7278 102.487C-11.0636 99.7144 -11.7456 96.8716 -12.0815 94.0994C-12.0109 93.7533 -12.6325 93.266 -12.9786 93.1954C-13.3247 93.1248 -14.0875 93.3297 -14.1581 93.6758C-15.7611 96.2329 -17.5018 98.5816 -17.9288 101.559C-18.5708 106.475 -19.6296 111.666 -21.31 116.371C-22.4997 119.553 -22.0261 122.533 -20.7897 125.309ZM45.3146 102.56C47.5221 104.993 49.313 107.702 51.4534 109.58C54.0776 111.738 55.8685 114.446 57.6593 117.155C59.1747 119.447 60.8984 121.601 62.4843 123.546C64.0702 125.492 65.6561 127.438 67.0337 129.521C69.6511 133.48 73.3809 136.403 77.5978 138.705C78.4278 139.055 78.9117 139.334 79.6779 138.228C78.9891 137.186 78.3003 136.145 77.6115 135.103C73.5459 129.407 69.6887 123.574 65.3442 118.361C60.9997 113.149 55.9595 108.697 50.5027 104.52C49.3972 103.754 47.6701 102.5 45.3146 102.56ZM30.9433 92.5998C34.1288 92.889 36.4878 91.9281 38.8468 90.9672C44.2603 88.286 49.3983 85.1881 54.123 81.4652C55.7898 80.3632 57.3188 79.0528 58.1556 77.6012C59.6914 74.4897 61.9866 72.0738 63.7979 69.379C64.2852 68.7573 64.4263 68.0651 64.7087 66.6807C63.1831 67.0906 62.0742 67.2249 61.2408 67.776C58.9491 69.2913 56.795 71.015 54.8494 72.6009C51.7914 75.2217 49.0795 77.9132 45.8838 80.3256C41.0884 84.3946 36.1553 88.2553 30.9433 92.5998ZM10.1273 138.103C11.5185 136.584 11.4548 135.129 11.1827 133.812C10.9811 132.149 10.3629 130.761 10.1614 129.098C9.75838 125.771 8.80089 122.512 7.42672 119.528C5.43433 115.156 3.23361 110.922 0.824539 106.825C-0.895735 103.771 -3.24104 101.13 -5.37801 98.3505C-5.79128 97.7254 -6.27514 97.4465 -7.31686 98.1353C-6.63489 100.978 -5.95292 103.821 -4.50816 106.459C-3.40609 108.126 -2.65013 109.722 -1.96475 111.664C0.22915 117.699 2.56081 123.943 4.75471 129.978C6.33723 132.824 7.99033 135.324 10.1273 138.103ZM-11.6865 62.9968C-14.1798 62.8488 -15.6382 63.8132 -17.305 64.9152C-22.5136 68.3592 -27.9305 71.9409 -33.1391 75.3849C-34.1808 76.0737 -35.2226 76.7625 -36.1265 77.6596C-38.6301 80.2133 -41.1336 82.7669 -43.7077 85.6667C-44.195 86.2883 -44.2656 86.6344 -43.3684 87.5383C-42.3267 86.8495 -41.285 86.1608 -40.2433 85.472C-38.5765 84.3699 -36.9804 83.6139 -35.1759 82.7202C-33.163 81.6887 -30.9418 80.5195 -29.0667 79.2797C-26.7749 77.7643 -24.4126 75.9029 -21.983 74.5959C-18.3034 72.4623 -15.6587 69.2165 -12.8762 66.1789C-12.1806 65.4196 -12.1066 64.1729 -11.6865 62.9968ZM-7.34309 86.7743C-4.84978 86.9223 -3.59973 86.0957 -2.34967 85.2692C-1.0996 84.4426 0.221041 83.27 1.60886 82.6517C9.17301 79.1474 15.6351 73.9764 22.3021 69.5681C24.8022 67.915 26.0591 65.2874 26.6944 62.1724C25.2428 61.3356 24.3388 62.2328 23.5054 62.7838C18.7135 65.9523 13.9216 69.1207 9.33806 72.1514C7.87966 73.1157 6.69678 74.4967 5.37612 75.6693C1.76028 79.2579 -1.65063 83.6092 -7.34309 86.7743ZM32.2333 99.5321C32.9824 102.929 33.8727 105.634 35.5258 108.135C36.3524 109.385 36.8328 110.564 37.2427 112.09C38.0624 115.141 38.8821 118.192 40.8814 120.763C41.5701 121.804 41.8423 123.122 42.1144 124.439C42.6552 127.974 44.446 130.682 46.4452 133.253C47.8228 135.337 48.6528 135.686 49.6945 134.997C51.0151 133.825 50.3263 132.783 49.8459 131.603C47.7863 126.677 45.7268 121.751 43.3211 116.754C42.9784 115.783 42.2191 115.087 42.0141 114.324C39.3967 110.366 36.7793 106.407 34.1619 102.449C33.8192 101.478 33.0598 100.782 32.2333 99.5321Z" fill="#FAD5A9"/>
</svg>
