<svg width="156" height="246" viewBox="0 0 156 246" fill="none" xmlns="http://www.w3.org/2000/svg">
<path d="M47.3803 151.775C42.1131 151.908 36.6878 152.815 31.2958 153.165C25.6874 153.39 20.8447 155.786 16.0019 158.183C15.1948 158.582 14.2628 159.198 13.6721 159.722C12.8649 160.122 12.1826 160.305 11.5918 160.829C11.0011 161.353 9.57816 160.821 9.47835 162.493C15.9854 162.21 22.7087 162.052 29.1242 161.428C38.7017 160.321 48.3124 158.656 58.073 158.232C59.8703 158.115 61.7924 157.782 63.7146 157.449C64.3969 157.266 65.3871 157.549 65.4536 156.434C59.7538 156.318 54.395 156.11 48.7534 156.892C47.8547 156.951 46.8312 157.225 46.0574 157.067C42.1548 156.834 38.1607 156.26 34.1916 157.142C33.3845 157.542 32.6439 156.826 31.9949 156.452C32.2445 156.019 32.3693 155.803 32.3693 155.803C35.2234 154.854 38.4186 153.814 41.514 154.446C43.8356 154.92 46.1905 154.837 48.6701 154.537C52.7308 153.996 56.8829 153.797 61.1267 153.938C63.1403 153.946 65.154 153.955 67.1677 153.963C67.5089 153.871 67.9748 153.563 68.782 153.164C67.4839 152.415 66.3688 152.349 65.2538 152.282C59.5539 152.166 53.4213 151.8 47.3803 151.775Z" fill="#EAAE68"/>
<path d="M172.46 125.896C172.752 122.892 173.259 120.013 172.31 117.159C170.688 112.474 169.315 107.357 168.715 102.397C168.233 99.2355 166.352 96.9972 164.13 94.8504C161.243 96.3566 159.745 98.9528 159.362 101.616C158.822 105.052 159.055 108.647 160.994 111.784C162.408 114.33 163.698 117.092 165.329 119.764C166.869 122.093 168.749 124.332 170.289 126.661C170.38 127.003 171.154 127.161 171.495 127.069C171.961 126.761 172.552 126.237 172.46 125.896Z" fill="#EAAE68"/>
<path d="M97.3789 137.083C94.9991 135.71 92.4944 134.553 90.2061 133.521C87.9178 132.49 85.6295 131.458 83.466 130.21C79.3554 127.838 74.7122 126.89 69.911 126.715C69.0123 126.774 68.4548 126.74 68.2634 128.072C69.3452 128.696 70.4269 129.32 71.5087 129.944C77.6913 133.222 83.7491 136.717 89.9649 139.438C96.1808 142.158 102.68 143.889 109.428 145.187C111.533 145.536 113.547 145.545 115.627 144.438C112.565 143.248 109.752 141.626 106.998 140.902C103.004 140.328 100.191 138.705 97.3789 137.083Z" fill="#EAAE68"/>
<path d="M93.4615 163.367C90.3245 165.306 87.8033 168.177 84.8827 170.24C81.9621 172.304 80.8305 176.265 76.4537 178.354C78.4507 174.892 79.6405 171.83 82.22 169.858C84.3335 168.193 86.2306 166.404 88.1277 164.615C87.512 163.683 86.7048 164.083 86.1141 164.607C83.6261 166.92 81.0467 168.893 78.5588 171.206C73.7077 175.616 71.6692 181.649 68.2078 187.149C68.083 187.365 68.083 187.365 67.9582 187.582C67.5505 188.788 68.133 190.278 68.7821 190.652C69.8638 191.276 70.7042 190.319 71.295 189.795C75.2141 186.001 79.258 181.99 82.9608 178.071C89.0599 171.497 94.2936 164.424 101.225 158.907C101.566 158.815 101.724 158.041 102.223 157.176C98.6869 158.308 96.3821 161.303 93.4615 163.367Z" fill="#EAAE68"/>
<path d="M124.716 164.674C127.062 159.107 129.75 153.449 132.471 147.233C129.492 148.398 127.811 150.312 126.13 152.225C122.486 157.043 119.274 162.111 116.711 167.553C115.713 169.284 114.931 171.139 114.831 172.812C114.848 176.282 113.874 179.469 113.458 182.689C113.3 183.463 113.483 184.145 113.849 185.51C115.031 184.461 115.963 183.846 116.462 182.98C117.835 180.6 118.992 178.096 120.023 175.807C121.929 172.005 123.152 168.385 124.716 164.674Z" fill="#EAAE68"/>
<path d="M157.523 119.3C155.792 118.302 154.403 117.212 152.922 115.78C148.262 111.362 143.385 106.819 138.726 102.401C136.504 100.254 134.032 98.5397 130.754 97.2251C130.188 99.2055 130.895 100.479 131.728 101.535C132.651 102.933 133.825 103.898 134.748 105.296C136.596 108.092 138.909 110.58 141.472 112.635C145.208 115.656 149.069 118.46 153.055 121.048C155.959 123.011 159.237 124.326 162.391 125.857C163.04 126.231 163.598 126.265 164.222 125.183C161.875 123.252 159.995 121.014 157.523 119.3Z" fill="#EAAE68"/>
<path d="M160.935 155.871C161.809 154.357 162.25 152.592 162.907 150.953C164.663 145.911 165.769 140.494 169.322 135.334C167.026 136.316 166.277 137.615 165.528 138.913C164.779 140.211 164.122 141.85 163.157 143.023C157.956 149.539 154.487 157.053 150.493 163.976C148.995 166.572 149.045 169.484 149.869 172.555C151.541 172.655 151.949 171.448 152.448 170.583C155.41 165.948 158.281 160.972 160.935 155.871Z" fill="#EAAE68"/>
<path d="M118.341 132.738C116.244 130.375 114.147 128.012 111.21 126.606C110.128 125.982 109.296 124.925 108.464 123.869C106.4 120.948 103.587 119.325 100.65 117.919C98.4866 116.671 97.5879 116.729 96.9639 117.811C96.3066 119.45 97.3883 120.074 98.3452 120.915C102.389 124.401 106.433 127.888 110.819 131.283C111.559 131.998 112.55 132.281 113.074 132.872C117.184 135.243 121.295 137.615 125.406 139.986C126.055 140.36 127.045 140.643 128.343 141.392C126.155 138.688 124.149 136.666 121.553 135.168C120.346 134.76 119.173 133.795 118.341 132.738Z" fill="#EAAE68"/>
<path d="M88.1959 163.498C88.0711 163.715 88.1627 164.056 88.0379 164.272C89.9683 161.926 93.255 161.227 95.6847 158.015C92.3646 159.271 90.1263 161.152 88.1959 163.498Z" fill="#EAAE68"/>
<path fill-rule="evenodd" clip-rule="evenodd" d="M175.906 124.421C178.885 123.256 193.197 115.942 195.652 114.186C196.584 113.57 197.299 112.83 198.015 112.089C196.75 110.783 195.169 111.024 193.746 110.491C188.237 109.044 183.478 106.298 179.933 101.946C178.884 100.765 177.836 99.583 176.912 98.1851C176.205 96.912 175.498 95.6389 175.132 94.2743C174.432 90.9875 174.199 87.3928 173.592 84.4472C175.397 82.317 176.953 80.6195 178.634 78.7056C179.408 78.8637 180.307 78.8054 181.172 79.3046C185.191 81.3349 188.62 83.8893 191.424 87.5255C194.411 91.844 198.705 94.8977 202.999 97.9514C203.739 98.667 204.946 99.0747 205.936 99.3576C207.916 99.9234 209.897 100.489 212.094 101.18C220.173 95.1718 227.637 88.2318 233.095 79.27C233.836 79.9856 234.393 80.0188 234.61 80.1436C235.134 80.7344 235.658 81.3252 236.182 81.916C235.301 85.4441 233.462 88.1318 230.974 90.4451C229.077 92.2342 227.179 94.0233 225.499 95.9372C223.227 98.3753 220.739 100.689 218.16 102.661C215.58 104.633 213.309 107.071 210.296 108.794C209.831 109.101 209.331 109.967 209.173 110.741C207.967 117.83 205.338 124.387 203.357 131.319C203.041 132.866 202.168 134.381 201.419 135.679C198.049 141.52 194.804 147.145 191.434 152.987C190.186 155.15 188.505 157.064 186.608 158.853C184.461 161.075 181.674 160.909 180.384 158.146C179.185 155.725 178.328 153.212 179.177 150.241C180.467 145.507 181.848 141.113 184.436 137.127C186.274 134.44 187.556 131.719 189.395 129.031C190.393 127.3 191.824 125.819 193.039 124.213C193.755 123.472 194.379 122.39 195.469 121.001C194.229 121.151 193.671 121.117 193.205 121.425C189.386 123.547 185.442 125.886 181.623 128.008C179.543 129.114 178.294 131.278 175.782 132.135C175.44 132.226 174.941 133.092 174.692 133.525C172.412 137.976 169.699 142.179 168.717 147.379C167.453 153.57 164.982 159.353 161.304 164.729C159.465 167.416 157.967 170.013 156.561 172.95C155.28 175.671 153.075 176.994 150.653 178.192C148.232 179.391 145.078 177.86 144.903 175.164C144.986 170.021 144.637 164.629 147.815 160.119C149.654 157.431 151.152 154.835 152.774 152.023C154.896 148.345 156.802 144.542 160.222 141.613C161.062 140.656 161.686 139.574 162.526 138.617C159.056 138.634 144.786 143.377 136.873 146.598C135.933 149.227 135.3 152.323 134.019 155.044C132.455 158.755 130.549 162.558 128.985 166.269C127.546 169.764 126.323 173.383 124.667 176.754C123.136 179.907 121.605 183.061 119.857 186.09C118.734 188.037 116.995 189.052 115.256 190.067C114.79 190.375 113.55 190.525 113.118 190.275C110.363 189.552 108.699 187.438 108.865 184.651C109.356 178.302 109.506 172.044 113.308 166.452C116.362 162.159 118.459 157.025 122.286 152.889C122.877 152.365 123.16 151.374 123.784 150.293C120.439 150.093 118.392 150.642 115.846 152.057C111.81 154.054 108.607 157.108 105.187 160.037C98.2556 165.554 92.6807 172.719 86.7064 179.076C82.5376 183.303 78.1526 187.406 73.8591 191.849C73.2683 192.373 72.6775 192.898 71.8704 193.297C68.9498 195.361 65.2385 193.797 64.6643 190.293C64.4562 188.155 64.4645 186.141 65.5878 184.194C67.8343 180.3 70.0809 176.405 72.2027 172.728C72.9515 171.429 74.2579 170.165 75.4394 169.116C79.1089 165.754 82.6869 162.051 87.0969 159.405C87.9041 159.006 88.4033 158.14 89.926 157C88.2535 156.901 87.3548 156.959 86.4562 157.017C82.953 157.591 79.3251 158.382 75.6971 159.173C68.5328 161.095 61.1854 162.335 53.6549 162.893C46.8067 163.267 40.0168 164.541 33.2601 165.256C28.9831 165.672 24.7061 166.089 20.4292 166.505C16.4933 166.829 12.8071 166.721 9.08764 167.171C6.94915 167.379 5.09354 166.597 3.14639 165.473C1.9731 164.508 1.51541 162.802 2.48061 161.629C4.0366 159.932 5.50104 157.893 7.88915 157.252C9.3786 156.67 10.7765 155.746 12.0496 155.039C15.6193 153.349 19.1889 151.66 22.7586 149.971C23.9069 149.48 24.8056 149.422 26.0454 149.272C33.3595 148.589 40.5822 147.566 47.7715 147.099C52.2648 146.808 56.6001 147.291 60.9021 148.331C64.2139 149.088 67.742 149.97 71.1786 150.51C75.9466 151.243 80.4982 151.85 85.2661 152.582C85.8236 152.615 86.3811 152.649 87.0635 152.465C89.202 152.257 99.004 149.262 101.767 147.972C100.56 147.564 99.6946 147.065 98.7044 146.782C90.35 144.269 82.2786 140.766 74.7063 136.398C71.4611 134.526 68.4322 132.778 65.3117 130.69C64.4463 130.191 63.5809 129.692 62.9319 129.317C61.1096 127.977 61.3342 126.089 63.2896 125.198C65.1202 124.524 66.9508 123.85 68.9645 123.858C74.6644 123.975 80.331 124.649 85.4319 127.303C88.0281 128.8 90.9987 129.649 93.7197 130.931C95.7917 131.837 98.08 132.869 100.027 133.992C102.407 135.365 104.57 136.613 107.325 137.337C108.656 137.529 109.829 138.494 111.127 139.243C112.426 139.992 114.065 140.649 116.237 139.883C109.247 137.004 104.404 131.904 98.8453 127.544C97.2394 126.329 95.7582 124.898 94.1522 123.683C93.7195 123.433 93.4116 122.967 93.3201 122.626C91.9637 120.979 91.1981 118.807 91.9802 116.951C92.8872 114.879 94.9674 113.773 97.2307 113.348C97.913 113.165 98.9032 113.448 99.5523 113.822C103.447 116.069 107.466 118.099 110.827 121.769C114.189 125.438 118.733 128.059 121.845 132.161C125.215 133.817 127.62 136.646 129.683 139.567C131.348 141.68 132.895 141.996 135.408 141.139C142.606 138.659 150.02 136.304 157.093 134.041C158.457 133.675 159.822 133.309 160.787 132.135C157.542 130.263 154.297 128.391 151.268 126.644C145.643 123.399 140.392 119.505 135.732 115.086C134.035 113.53 132.587 111.542 131.139 109.553C130.09 108.371 129.508 106.882 128.459 105.7C126.454 103.678 126.029 101.415 125.513 98.8106C125.181 96.8884 126.054 95.374 127.361 94.1091C128.883 92.9691 130.556 93.0689 132.287 94.0674C135.748 96.0644 139.21 98.0613 141.956 100.799C145.75 104.718 150.011 108.329 154.146 112.157C154.671 112.747 155.444 112.906 156.618 113.871C156.468 112.631 156.41 111.732 156.102 111.266C154.937 108.287 154.92 104.818 155.428 101.938C156.126 97.728 158.589 93.9585 162.625 91.9614C163.898 91.2541 165.446 91.5702 166.494 92.7518C169.207 96.0468 171.703 99.2171 172.427 103.96C172.968 108.021 174.067 112.115 174.949 116.084C175.681 118.813 176.289 121.759 175.349 124.388C175.598 123.955 175.815 124.08 175.906 124.421ZM88.2537 164.398C87.6379 163.466 86.9556 163.649 86.3648 164.173C83.8769 166.486 81.2974 168.459 78.8095 170.772C73.9585 175.182 71.92 181.215 68.4586 186.715C68.3338 186.932 68.3338 186.932 68.209 187.148C67.8013 188.355 68.3838 189.844 69.0328 190.218C70.1146 190.842 70.955 189.886 71.5458 189.361C75.4649 185.567 79.5088 181.556 83.2115 177.637C89.3106 171.063 94.5444 163.99 101.476 158.473C101.817 158.381 101.975 157.607 102.474 156.742C98.5633 158.523 96.3832 161.302 93.4626 163.366C90.3256 165.305 87.8044 168.176 84.8838 170.239C81.9632 172.303 80.8317 176.264 76.4549 178.352C78.4518 174.891 79.6416 171.829 82.2211 169.857C84.243 167.851 86.1402 166.062 88.2537 164.398C90.3089 161.835 93.5957 161.136 95.809 157.799C92.3641 159.272 90.1258 161.153 88.1954 163.499C88.0706 163.715 88.1621 164.057 88.2537 164.398ZM193.895 96.7368C194.977 97.3609 196.059 97.9849 197.141 98.609C196.433 97.3359 195.352 96.7118 193.895 96.7368C193.804 96.3957 193.837 95.8381 193.962 95.6218C191.99 93.0423 189.984 91.0204 188.229 88.5657C186.165 85.6451 183.261 83.6814 179.641 82.4583C179.267 83.1074 179.017 83.5401 178.643 84.1891C177.42 87.8088 178.427 91.5616 180.149 94.5737C181.747 97.8022 184.368 100.756 187.705 102.969C192.556 106.056 197.973 107.163 203.706 106.722C204.264 106.755 204.946 106.572 205.013 105.457C197.341 102.761 191.291 97.2528 183.785 91.7694C185.458 91.8692 186.14 91.6862 186.356 91.811C188.645 92.8427 190.808 94.0908 192.972 95.3389C193.496 95.9297 193.804 96.3957 193.895 96.7368ZM68.9986 153.29C67.7005 152.541 66.5854 152.474 65.4704 152.408C59.5542 152.167 53.4216 151.801 47.4721 152.117C42.2049 152.25 36.7796 153.157 31.3876 153.507C25.7792 153.732 20.9365 156.128 16.0937 158.525C15.2866 158.924 14.3546 159.54 13.7639 160.065C12.9567 160.464 12.2744 160.647 11.6836 161.171C11.0929 161.696 9.66996 161.163 9.57015 162.836C16.0772 162.552 22.8005 162.394 29.216 161.77C38.7935 160.663 48.4042 158.999 58.1647 158.574C59.9621 158.457 61.8842 158.124 63.8064 157.792C64.4887 157.608 65.4789 157.891 65.5454 156.776C59.8455 156.66 54.4868 156.452 48.8452 157.234C47.9465 157.293 46.923 157.567 46.1492 157.409C42.2466 157.176 38.2525 156.602 34.2834 157.484C33.3847 157.543 32.6442 156.827 31.9951 156.453C32.2447 156.02 32.3695 155.804 32.3695 155.804C35.2236 154.855 38.4189 153.815 41.5143 154.447C43.8359 154.921 46.1907 154.838 48.6704 154.538C52.731 153.997 56.8832 153.798 61.1269 153.939C63.1406 153.947 65.1543 153.956 67.168 153.964C67.7255 153.997 67.9751 153.564 68.9986 153.29ZM164.131 94.8487C161.244 96.3549 159.746 98.9511 159.363 101.614C158.823 105.05 159.056 108.645 160.995 111.782C162.409 114.328 163.699 117.091 165.33 119.762C166.869 122.092 168.75 124.33 170.29 126.66C170.381 127.001 171.155 127.159 171.496 127.068C171.837 126.976 172.428 126.452 172.336 126.111C172.628 123.107 173.135 120.228 172.186 117.374C170.564 112.689 169.191 107.571 168.591 102.612C168.234 99.2338 166.478 96.7792 164.131 94.8487ZM115.163 144.743C112.101 143.553 109.289 141.93 106.534 141.207C103.223 140.45 100.41 138.827 97.5975 137.204C95.2176 135.832 92.713 134.675 90.4246 133.643C88.1363 132.612 85.848 131.58 83.6845 130.332C79.5739 127.96 74.9307 127.012 70.1295 126.837C69.2309 126.895 68.6733 126.862 68.482 128.194C69.5637 128.818 70.6455 129.442 71.7272 130.066C77.9098 133.344 83.9676 136.839 90.1835 139.56C96.3994 142.28 102.898 144.011 109.646 145.309C110.978 145.5 113.083 145.85 115.163 144.743ZM132.471 147.23C129.492 148.395 127.811 150.309 126.131 152.223C122.486 157.041 119.274 162.109 116.712 167.551C115.713 169.281 114.931 171.137 114.831 172.81C114.848 176.279 113.874 179.466 113.459 182.687C113.3 183.461 113.484 184.143 113.85 185.508C115.031 184.459 115.963 183.843 116.462 182.978C117.835 180.598 118.992 178.093 120.024 175.805C121.588 172.094 122.811 168.474 124.592 164.888C127.063 159.105 129.75 153.446 132.471 147.23ZM130.756 97.2211C130.19 99.2015 130.897 100.475 131.729 101.531C132.653 102.929 133.826 103.894 134.75 105.292C136.597 108.088 138.911 110.576 141.473 112.631C145.21 115.652 149.071 118.456 153.057 121.044C155.961 123.007 159.239 124.322 162.393 125.853C163.042 126.227 163.599 126.261 164.223 125.179C162.343 122.941 160.462 120.702 157.991 118.988C156.26 117.99 154.87 116.9 153.389 115.468C148.729 111.05 143.853 106.507 139.193 102.089C136.506 100.25 133.909 98.7521 130.756 97.2211ZM183.837 154.66C186.133 153.678 187.007 152.163 188.006 150.432C191.126 145.024 194.371 139.399 197.491 133.99C198.115 132.908 198.739 131.826 199.147 130.62C200.245 127.217 201.343 123.813 202.35 120.069C202.508 119.295 202.417 118.954 201.21 118.546C200.586 119.628 199.962 120.709 199.338 121.791C198.34 123.522 197.25 124.912 196.035 126.518C194.695 128.34 193.231 130.379 192.107 132.326C190.734 134.706 189.453 137.427 187.864 139.682C185.526 143.235 184.611 147.321 183.479 151.281C183.196 152.272 183.687 153.42 183.837 154.66ZM169.325 135.33C167.028 136.312 166.279 137.61 165.53 138.908C164.781 140.207 164.124 141.846 163.159 143.019C157.958 149.535 154.489 157.049 150.495 163.972C148.997 166.568 149.047 169.48 149.871 172.551C151.544 172.651 151.951 171.444 152.45 170.579C155.321 165.603 158.192 160.626 160.937 155.867C161.811 154.352 162.252 152.588 162.909 150.949C164.54 146.123 165.647 140.706 169.325 135.33ZM128.219 141.605C126.03 138.901 124.025 136.879 121.429 135.382C120.131 134.633 119.174 133.792 118.125 132.611C116.028 130.248 113.931 127.884 110.994 126.478C109.912 125.854 109.08 124.798 108.248 123.741C106.184 120.82 103.372 119.198 100.434 117.791C98.2709 116.543 97.3722 116.602 96.7482 117.683C96.0909 119.323 97.1726 119.947 98.1296 120.787C102.174 124.273 106.218 127.76 110.603 131.155C111.344 131.87 112.334 132.153 112.858 132.744C116.969 135.115 121.079 137.487 125.19 139.858C125.931 140.574 126.921 140.857 128.219 141.605Z" fill="#FAD5A9"/>
</svg>
