<svg width="156" height="183" viewBox="0 0 156 183" fill="none" xmlns="http://www.w3.org/2000/svg">
<path d="M108.621 74.5586C113.27 77.0385 118.438 78.923 123.302 81.2762C128.292 83.8446 133.687 84.146 139.082 84.4474C139.981 84.4977 141.096 84.4212 141.868 84.2562C142.767 84.3064 143.451 84.4834 144.224 84.3184C144.996 84.1534 145.972 85.318 146.883 83.9119C141.081 80.9513 135.153 77.7754 129.263 75.1568C120.384 71.3998 111.202 68.1115 102.499 63.6706C100.878 62.8862 99.0415 62.2285 97.205 61.5708C96.521 61.3939 95.7989 60.6597 95.1914 61.5971C100.094 64.5075 104.654 67.3294 109.948 69.4291C110.759 69.8213 111.785 70.0868 112.38 70.6057C115.661 72.7317 118.854 75.1996 122.742 76.3882C123.641 76.4384 123.933 77.4261 124.313 78.0718C123.883 78.3252 123.668 78.452 123.668 78.452C120.717 77.8708 117.424 77.2012 115.042 75.1254C113.256 73.5686 111.166 72.4805 108.86 71.5191C105.06 69.9886 101.349 68.1161 97.7262 65.9016C95.9781 64.902 94.2301 63.9024 92.482 62.9027C92.14 62.8143 91.5828 62.8525 90.6837 62.8023C91.4441 64.0936 92.3815 64.701 93.3189 65.3085C98.2212 68.2189 103.377 71.5597 108.621 74.5586Z" fill="#EAAE68"/>
<path d="M-12.9673 35.4313C-14.7011 37.9015 -16.5616 40.1566 -17.1428 43.1075C-18.0396 47.9835 -19.3669 53.1129 -21.2897 57.7234C-22.428 60.7126 -21.8948 63.5871 -21.0196 66.55C-17.765 66.6624 -15.1823 65.1416 -13.537 63.0133C-11.3727 60.2896 -9.80395 57.0469 -9.94497 53.3618C-9.921 50.4491 -9.68181 47.4097 -9.78458 44.2818C-9.97584 41.4958 -10.5091 38.6214 -10.7003 35.8355C-10.6118 35.4935 -11.2073 34.9746 -11.5492 34.8861C-12.1064 34.9243 -12.8788 35.0893 -12.9673 35.4313Z" fill="#EAAE68"/>
<path d="M57.876 62.6997C59.2701 65.0672 60.8794 67.3079 62.362 69.3334C63.8446 71.3589 65.3273 73.3845 66.5946 75.5367C69.0027 79.626 72.5753 82.7396 76.6669 85.2578C77.4776 85.65 77.9463 85.9537 78.7689 84.8896C78.1352 83.8134 77.5015 82.7373 76.8678 81.6612C73.1039 75.7616 69.5553 69.7353 65.4876 64.3044C61.42 58.8736 56.6183 54.1649 51.386 49.7097C49.7264 48.3681 47.9784 47.3685 45.6229 47.3063C47.7009 49.8507 49.3485 52.6486 51.3883 54.6359C54.5808 57.1038 56.2284 59.9018 57.876 62.6997Z" fill="#EAAE68"/>
<path d="M74.2385 41.7621C77.9236 41.6211 81.5322 40.3657 85.0906 40.0095C88.649 39.6532 91.5856 36.7645 96.4233 37.1042C92.9797 39.132 90.4353 41.21 87.2189 41.6548C84.5597 42.0612 82.0272 42.6829 79.4947 43.3047C79.5712 44.419 80.4704 44.4693 81.2428 44.3043C84.5477 43.5176 87.7641 43.0728 91.069 42.2861C97.4635 40.8395 102.21 36.5949 107.933 33.5149C108.148 33.3882 108.148 33.3882 108.364 33.2614C109.313 32.4125 109.54 30.8294 109.16 30.1838C108.526 29.1076 107.323 29.5261 106.551 29.6911C101.271 31.0613 95.7754 32.5581 90.6219 34.1435C82.0752 36.8576 74.0353 40.4325 65.2853 41.817C64.9433 41.7285 64.4244 42.3239 63.5635 42.8309C67.1983 43.589 70.6802 42.1184 74.2385 41.7621Z" fill="#EAAE68"/>
<path d="M47.688 25.2215C42.9028 28.9089 37.7756 32.5078 32.3448 36.5754C35.5109 37.0298 37.9167 36.1929 40.3224 35.3559C45.868 32.9599 51.1602 30.1334 56.0721 26.6612C57.7939 25.6473 59.3889 24.4182 60.3001 23.0121C61.9956 19.9847 64.4133 17.6914 66.3623 15.0944C66.8813 14.4989 67.0583 13.815 67.4122 12.4472C65.8674 12.7771 64.753 12.8536 63.8921 13.3606C61.5246 14.7547 59.2839 16.3641 57.2584 17.8467C53.7263 20.2165 50.8781 22.7632 47.688 25.2215Z" fill="#EAAE68"/>
<path d="M-3.22029 48.5317C-2.20639 50.2535 -1.53444 51.8868 -0.950983 53.8621C0.926127 60.0032 2.92998 66.3595 4.80708 72.5005C5.68227 75.4635 6.98791 78.1729 9.1927 80.9326C10.661 79.4882 10.673 78.0319 10.4698 76.7023C10.355 75.0307 9.8098 73.6126 9.69505 71.9411C9.46554 68.5979 8.67884 65.293 7.46169 62.2416C5.69934 57.7721 3.72176 53.4294 1.52895 49.2134C-0.030164 46.0735 -2.23495 43.3138 -4.22452 40.4274C-4.60473 39.7817 -5.07343 39.478 -6.14956 40.1117C-5.05915 42.9479 -4.52593 45.8223 -3.22029 48.5317Z" fill="#EAAE68"/>
<path d="M11.8339 15.0301C10.3273 15.9173 9.07425 17.2349 7.69441 18.3373C3.68164 21.8597 0.0490734 26.0278 -5.58504 28.7658C-3.1028 29.0432 -1.81145 28.2828 -0.520101 27.5224C0.771251 26.7619 2.15108 25.6595 3.56917 25.1143C11.3053 22.0081 18.0275 17.18 24.9147 13.1244C27.4974 11.6036 28.8893 9.04482 29.6856 5.96715C28.2795 5.05601 27.3301 5.90493 26.4692 6.41188C21.6075 8.9849 16.6574 11.8999 11.8339 15.0301Z" fill="#EAAE68"/>
<path d="M37.4955 56.1509C38.1554 59.2406 38.8154 62.3302 40.6782 65.0014C41.3119 66.0776 41.5152 67.4072 41.7184 68.7368C42.0746 72.2951 43.7222 75.093 45.5851 77.7642C46.8525 79.9165 47.6631 80.3087 48.7392 79.675C50.1191 78.5726 49.4854 77.4965 49.0669 76.2936C47.2663 71.2669 45.4657 66.2402 43.3231 61.1251C43.0314 60.1374 42.3092 59.4033 42.1442 58.6309C39.7362 54.5416 37.3282 50.4523 34.9202 46.363C34.5399 45.7173 33.8178 44.9832 33.0573 43.6918C33.6288 47.1234 34.3772 49.8711 35.8981 52.4538C36.747 53.4032 37.2922 54.8213 37.4955 56.1509Z" fill="#EAAE68"/>
<path d="M78.886 44.2417C79.1012 44.1149 79.1897 43.773 79.405 43.6462C76.5688 44.7366 73.3644 43.725 69.6673 45.3224C73.1754 45.8653 76.0498 45.3321 78.886 44.2417Z" fill="#EAAE68"/>
<path fill-rule="evenodd" clip-rule="evenodd" d="M-16.6923 35.017C-19.8584 34.5626 -35.9165 33.8736 -38.9176 34.1916C-40.032 34.2681 -41.0196 34.5599 -42.0073 34.8516C-41.5506 36.6116 -40.056 37.1808 -39.0803 38.3454C-35.0007 42.3199 -32.2125 47.0549 -31.2728 52.5885C-30.9428 54.1334 -30.6128 55.6782 -30.498 57.3498C-30.51 58.8061 -30.522 60.2624 -30.876 61.6303C-31.8876 64.8347 -33.4564 68.0774 -34.3795 70.9398C-37.0004 71.9035 -39.1909 72.6137 -41.5967 73.4506C-42.1921 72.9317 -43.0028 72.5395 -43.5097 71.6786C-46.0063 67.9313 -47.7304 64.019 -48.3783 59.473C-48.8493 54.243 -51.0804 49.4698 -53.3114 44.6966C-53.6032 43.709 -54.4521 42.7596 -55.1743 42.0254C-56.6186 40.5571 -58.063 39.0888 -59.6341 37.4052C-69.6252 38.651 -79.5399 41.011 -88.7061 46.1188C-88.9978 45.1312 -89.4665 44.8275 -89.5933 44.6123C-89.7582 43.8398 -89.9232 43.0674 -90.0882 42.295C-87.582 39.6598 -84.6574 38.2274 -81.3525 37.4407C-78.82 36.819 -76.2875 36.1973 -73.8818 35.3603C-70.7037 34.3584 -67.3988 33.5717 -64.1824 33.127C-60.966 32.6823 -57.7878 31.6803 -54.318 31.666C-53.7608 31.6278 -52.8999 31.1208 -52.3809 30.5254C-47.8372 24.9512 -42.3179 20.5416 -37.1787 15.4864C-36.1409 14.2955 -34.6343 13.4083 -33.3429 12.6479C-27.5319 9.22596 -21.936 5.93076 -16.1249 2.50882C-13.9727 1.24144 -11.5669 0.404494 -9.03447 -0.217208C-6.07155 -1.09239 -3.72804 0.426165 -3.96723 3.46559C-4.11794 6.16304 -4.61061 8.77201 -6.8131 10.9386C-10.2687 14.4227 -13.6358 17.5649 -17.8518 19.7577C-20.7765 21.1901 -23.2324 22.9262 -26.1571 24.3585C-27.8789 25.3725 -29.8542 25.9559 -31.7027 26.7546C-32.6904 27.0463 -33.7665 27.68 -35.3998 28.352C-34.2472 28.8326 -33.7785 29.1364 -33.2213 29.0981C-28.8523 29.1341 -24.268 29.0433 -19.899 29.0792C-17.5435 29.1414 -15.3912 27.8741 -12.7823 28.3667C-12.4403 28.4552 -11.5794 27.9483 -11.149 27.6948C-6.97118 24.9448 -2.53995 22.6252 0.877394 18.5839C5.02889 13.8204 10.0293 10.0062 15.8786 7.14149C18.8033 5.70912 21.386 4.18826 24.0572 2.32543C26.5132 0.589343 29.0839 0.524817 31.7814 0.675536C34.4788 0.826237 36.4684 3.71265 35.2918 6.14464C32.6851 10.5782 30.3319 15.4422 25.3435 17.8C22.4188 19.2324 19.8361 20.7532 17.0382 22.4008C13.3794 24.5554 9.84726 26.9251 5.428 27.7884C4.22513 28.2068 3.149 28.8405 1.94614 29.259C4.97358 30.9545 19.7283 33.8603 28.2008 34.9581C30.3148 33.1335 32.3906 30.7517 34.8466 29.0157C38.0367 26.5574 41.5688 24.1876 44.7589 21.7293C47.7338 19.3978 50.582 16.8511 53.6836 14.7348C56.57 12.7452 59.4565 10.7556 62.4696 8.98131C64.4066 7.84066 66.4202 7.81439 68.4337 7.78812C68.9909 7.74987 70.1435 8.23056 70.397 8.66101C72.4368 10.6483 72.8433 13.3075 71.3247 15.651C67.7687 20.9334 64.5546 26.3044 58.49 29.2959C53.7168 31.5269 49.362 34.9609 43.9934 36.673C43.221 36.838 42.4868 37.5602 41.4107 38.1938C44.2229 40.0161 46.2747 40.547 49.1874 40.571C53.6831 40.8222 57.9757 39.7438 62.3949 38.8806C71.145 37.4961 79.5268 34.0097 87.8583 31.4224C93.5689 29.7987 99.4063 28.3903 105.332 26.6399C106.105 26.4749 106.877 26.31 107.776 26.3602C111.334 26.0039 113.793 29.1941 112.566 32.5252C111.693 34.4885 110.693 36.2366 108.756 37.3772C104.882 39.6585 101.008 41.9398 97.3494 44.0944C96.0581 44.8548 94.298 45.3115 92.7532 45.6415C87.9035 46.7582 82.9653 48.2168 77.8238 48.3459C76.9247 48.2956 76.0638 48.8026 74.177 49.0441C75.5831 49.9552 76.3938 50.3474 77.2044 50.7396C80.5356 51.9664 84.082 53.0665 87.6283 54.1666C94.8096 56.0249 101.814 58.567 108.641 61.7931C114.784 64.8422 121.32 67.0806 127.552 69.7878C131.479 71.5335 135.405 73.2793 139.332 75.0251C142.916 76.6824 146.07 78.5931 149.528 80.0352C151.492 80.9081 152.721 82.5031 153.861 84.4402C154.407 85.8582 153.964 87.5681 152.546 88.1133C150.356 88.8235 148.077 89.8756 145.683 89.2562C144.1 89.029 142.428 89.1438 140.972 89.1318C137.033 88.8423 133.095 88.5529 129.156 88.2635C127.915 88.1248 127.104 87.7326 125.952 87.2519C119.251 84.241 112.462 81.5721 105.977 78.4346C101.924 76.4736 98.3891 73.9171 95.1584 70.892C92.6499 68.601 90.0147 66.0948 87.291 63.9306C83.5031 60.9437 79.842 58.172 76.0541 55.1851C75.5854 54.8814 75.1167 54.5777 74.4328 54.4007C72.4695 53.5279 62.464 51.3037 59.4246 51.0645C60.2735 52.0139 60.7805 52.8748 61.5027 53.609C67.5336 59.9127 72.8303 66.9386 77.2662 74.4715C79.1672 77.6999 80.9416 80.7131 82.6274 84.0682C83.1344 84.9291 83.6414 85.79 84.0216 86.4357C84.947 88.4994 83.8206 90.0323 81.6804 89.8433C79.7553 89.5276 77.8303 89.2119 76.0822 88.2123C71.1799 85.3019 66.5814 81.9228 63.4512 77.0994C61.9303 74.5167 59.7638 72.3142 58.0277 69.8582C56.6718 68.0479 55.1892 66.0224 54.0486 64.0854C52.6545 61.7179 51.3871 59.5657 49.3473 57.5784C48.2831 56.7558 47.7379 55.3377 46.9775 54.0463C46.2171 52.755 45.1147 51.3751 42.8477 50.9709C47.5107 56.9207 49.2109 63.7457 51.8986 70.279C52.6973 72.1275 53.2808 74.1028 54.0795 75.9514C54.3329 76.3818 54.3712 76.939 54.2827 77.281C54.6509 79.383 54.2467 81.65 52.6517 82.8791C50.8414 84.235 48.4859 84.1728 46.3074 83.4266C45.6234 83.2497 44.9013 82.5155 44.5211 81.8698C42.2398 77.9958 39.7432 74.2484 38.6266 69.3987C37.5099 64.549 34.8484 60.0293 34.1621 54.9261C32.0458 51.8245 31.3476 48.1776 30.9914 44.6193C30.5849 41.9601 29.394 40.9222 26.7851 40.4295C19.3001 39.04 11.6884 37.4352 4.41869 35.919C3.05083 35.565 1.68298 35.2111 0.264887 35.7563C2.16596 38.9847 4.06705 42.213 5.84138 45.2262C9.13658 50.8221 11.7861 56.7981 13.6632 62.9392C14.3734 65.1297 14.6532 67.5737 14.9329 70.0177C15.2629 71.5625 15.0357 73.1456 15.3656 74.6904C16.1141 77.4381 15.3679 79.6166 14.5333 82.1371C13.8757 83.9737 12.3691 84.8608 10.609 85.3175C8.72223 85.559 7.31612 84.6479 6.30222 82.9261C4.2744 79.4825 2.24659 76.0389 1.20642 72.3036C-0.163736 67.0234 -2.09108 61.7815 -3.8032 56.4128C-3.96819 55.6404 -4.56364 55.1215 -5.10884 53.7034C-5.58953 54.856 -5.98172 55.6667 -5.94347 56.2239C-6.39789 59.39 -8.09343 62.4175 -9.95395 64.6725C-12.6371 67.9917 -16.6379 70.0577 -21.1337 69.8066C-22.59 69.7946 -23.7809 68.7567 -24.1109 67.2119C-24.8473 63.0078 -25.4571 59.019 -23.7496 54.5352C-22.219 50.7354 -21.1572 46.6318 -19.9686 42.7435C-19.2607 40.0078 -18.3376 37.1453 -16.2236 35.3208C-16.654 35.5742 -16.7808 35.359 -16.6923 35.017ZM79.2779 43.4316C79.3544 44.546 80.0383 44.723 80.8107 44.558C84.1156 43.7713 87.332 43.3266 90.6369 42.5399C97.0314 41.0932 101.778 36.8486 107.501 33.7686C107.716 33.6419 107.716 33.6419 107.931 33.5152C108.881 32.6662 109.108 31.0832 108.728 30.4375C108.094 29.3614 106.891 29.7798 106.119 29.9448C100.839 31.315 95.3433 32.8119 90.1898 34.3972C81.643 37.1113 73.6032 40.6863 64.8532 42.0707C64.5112 41.9822 63.9923 42.5776 63.1314 43.0846C67.4119 43.4625 70.6785 42.1186 74.2369 41.7624C77.922 41.6214 81.5306 40.3659 85.089 40.0097C88.6473 39.6534 91.584 36.7647 96.4217 37.1044C92.9781 39.1322 90.4336 41.2103 87.2172 41.655C84.4696 42.4034 81.9371 43.0251 79.2779 43.4316C76.2265 44.6488 73.0221 43.6372 69.4517 45.4498C73.1751 45.8659 76.0495 45.3327 78.8857 44.2423C79.1009 44.1156 79.1894 43.7736 79.2779 43.4316ZM-45.9892 50.24C-46.6229 49.1638 -47.2566 48.0877 -47.8903 47.0116C-47.9022 48.4679 -47.2686 49.544 -45.9892 50.24C-46.0777 50.5819 -46.3814 51.0506 -46.5966 51.1773C-46.1519 54.3937 -45.4034 57.1414 -45.0854 60.1426C-44.7292 63.701 -43.1701 66.8409 -40.6233 69.689C-39.9776 69.3088 -39.5472 69.0553 -38.9015 68.6751C-36.0533 66.1284 -35.08 62.3668 -35.0943 58.8969C-34.8933 55.3003 -35.7183 51.4382 -37.5309 47.8679C-40.2306 42.7909 -44.3987 39.1584 -49.6047 36.7167C-50.0734 36.413 -50.7573 36.236 -51.3647 37.1734C-46.0177 43.3002 -43.4687 51.0746 -39.6403 59.5449C-41.0464 58.6337 -41.7303 58.4568 -41.857 58.2415C-43.3397 56.216 -44.607 54.0638 -45.8744 51.9115C-46.0394 51.1391 -46.0777 50.5819 -45.9892 50.24ZM90.5576 62.5867C91.318 63.878 92.2554 64.4855 93.1928 65.0929C98.2218 68.2185 103.378 71.5593 108.71 74.2162C113.359 76.6962 118.527 78.5807 123.391 80.9339C128.381 83.5023 133.776 83.8037 139.171 84.1051C140.07 84.1553 141.185 84.0788 141.957 83.9138C142.856 83.9641 143.54 84.141 144.313 83.9761C145.085 83.8111 146.061 84.9757 146.972 83.5696C141.171 80.609 135.242 77.4331 129.353 74.8145C120.473 71.0575 111.291 67.7692 102.589 63.3282C100.967 62.5438 99.1307 61.8862 97.2941 61.2285C96.6102 61.0515 95.888 60.3174 95.2806 61.2548C100.183 64.1652 104.743 66.9871 110.038 69.0868C110.848 69.479 111.874 69.7444 112.47 70.2634C115.75 72.3894 118.943 74.8573 122.831 76.0459C123.642 76.4381 123.934 77.4257 124.314 78.0714C123.883 78.3249 123.668 78.4516 123.668 78.4516C120.717 77.8705 117.424 77.2008 115.043 75.1251C113.256 73.5683 111.166 72.4801 108.861 71.5188C105.061 69.9882 101.35 68.1157 97.7269 65.9012C95.9788 64.9016 94.2307 63.902 92.4826 62.9024C92.0139 62.5987 91.5835 62.8521 90.5576 62.5867ZM-21.0212 66.5519C-17.7666 66.6644 -15.1839 65.1435 -13.5386 63.0152C-11.3743 60.2915 -9.80555 57.0488 -9.94657 53.3637C-9.9226 50.451 -9.68341 47.4116 -9.78618 44.2837C-9.97744 41.4978 -10.5107 38.6233 -10.7019 35.8374C-10.6134 35.4954 -11.2089 34.9765 -11.5508 34.888C-11.8928 34.7995 -12.6652 34.9645 -12.7537 35.3065C-14.4875 37.7767 -16.348 40.0317 -16.9292 42.9827C-17.826 47.8587 -19.1533 52.9881 -21.0761 57.5986C-22.4296 60.7146 -22.1116 63.7157 -21.0212 66.5519ZM46.1765 47.2716C48.2546 49.816 49.9022 52.6139 51.942 54.6012C54.4505 56.8922 56.0981 59.6901 57.7457 62.488C59.1398 64.8555 60.7491 67.0963 62.2317 69.1218C63.7144 71.1473 65.197 73.1728 66.4644 75.3251C68.8724 79.4143 72.445 82.528 76.5366 85.0461C77.3473 85.4383 77.816 85.742 78.6386 84.6779C78.0049 83.6018 77.3712 82.5256 76.7375 81.4495C72.9737 75.55 69.425 69.5236 65.3574 64.0928C61.2897 58.6619 56.488 53.9532 51.2557 49.498C50.1916 48.6754 48.532 47.3338 46.1765 47.2716ZM32.3427 36.5771C35.5088 37.0315 37.9146 36.1946 40.3203 35.3577C45.8659 32.9616 51.158 30.1351 56.07 26.6629C57.7918 25.649 59.3868 24.4199 60.298 23.0138C61.9935 19.9864 64.4112 17.6931 66.3602 15.0961C66.8792 14.5007 67.0562 13.8167 67.4101 12.4489C65.8653 12.7789 64.7509 12.8554 63.89 13.3623C61.5225 14.7564 59.2818 16.3658 57.2563 17.8484C54.0661 20.3067 51.218 22.8534 47.9011 25.0964C42.9007 28.9106 37.7735 32.5095 32.3427 36.5771ZM9.18864 80.9365C10.657 79.4922 10.6689 78.0358 10.4657 76.7062C10.3509 75.0347 9.80575 73.6166 9.69099 71.945C9.46149 68.6019 8.67478 65.297 7.45763 62.2456C5.69528 57.7761 3.71769 53.4333 1.52489 49.2173C-0.0342212 46.0774 -2.23901 43.3177 -4.22858 40.4313C-4.60879 39.7857 -5.07749 39.4819 -6.15361 40.1156C-5.62039 42.9901 -5.08717 45.8645 -3.78154 48.5739C-2.76763 50.2957 -2.09569 51.9291 -1.51223 53.9043C0.364879 60.0454 2.36873 66.4017 4.24584 72.5427C5.67821 75.4674 7.19907 78.0501 9.18864 80.9365ZM-8.69021 4.79749C-11.1724 4.52005 -12.679 5.40722 -14.4008 6.42112C-19.7815 9.58958 -25.3773 12.8848 -30.7579 16.0532C-31.8341 16.6869 -32.9102 17.3206 -33.8596 18.1695C-36.4925 20.5896 -39.1255 23.0096 -41.8469 25.7716C-42.3658 26.367 -42.4543 26.709 -41.6054 27.6584C-40.5293 27.0247 -39.4531 26.391 -38.377 25.7573C-36.6552 24.7434 -35.0219 24.0714 -33.1734 23.2727C-31.1096 22.3473 -28.8306 21.2952 -26.8936 20.1545C-24.5261 18.7604 -22.0701 17.0243 -19.5759 15.8454C-15.7903 13.9061 -12.9804 10.8021 -10.0438 7.91342C-9.30961 7.19125 -9.1709 5.95012 -8.69021 4.79749ZM-5.58905 28.7686C-3.10681 29.0461 -1.81546 28.2856 -0.524114 27.5252C0.767242 26.7648 2.14707 25.6624 3.56516 25.1172C11.3013 22.0109 18.0235 17.1829 24.9107 13.1272C27.4934 11.6064 28.8853 9.04764 29.6816 5.96997C28.2755 5.05883 27.3261 5.90775 26.4652 6.41471C21.5151 9.32969 16.5649 12.2447 11.8299 15.0329C10.3233 15.9201 9.07025 17.2377 7.6904 18.3401C3.89285 21.7358 0.260292 25.9039 -5.58905 28.7686ZM33.2704 43.5671C33.8419 46.9987 34.5903 49.7464 36.1112 52.3291C36.8716 53.6205 37.2901 54.8233 37.62 56.3682C38.28 59.4578 38.94 62.5475 40.8028 65.2187C41.4365 66.2948 41.6397 67.6244 41.843 68.954C42.1992 72.5124 43.8468 75.3103 45.7096 77.9815C46.977 80.1337 47.7877 80.5259 48.8638 79.8922C50.2436 78.7898 49.61 77.7137 49.1915 76.5108C47.3909 71.4842 45.5903 66.4575 43.4477 61.3423C43.156 60.3547 42.4338 59.6205 42.2688 58.8481C39.8608 54.7588 37.4527 50.6695 35.0447 46.5803C34.753 45.5926 34.0308 44.8585 33.2704 43.5671Z" fill="#FAD5A9"/>
</svg>
