<svg width="148" height="145" viewBox="0 0 148 145" fill="none" xmlns="http://www.w3.org/2000/svg">
<path d="M44.2015 64.6507C39.0065 65.5299 33.7648 67.1977 28.477 68.3088C22.9572 69.327 18.5035 72.3865 14.0498 75.4459C13.3075 75.9558 12.4723 76.6976 11.9619 77.3004C11.2196 77.8103 10.5702 78.0883 10.0598 78.6911C9.54934 79.2938 8.06527 78.9686 8.20378 80.6383C14.6048 79.4349 21.2377 78.3243 27.4997 76.7961C36.8232 74.3415 46.1006 71.3303 55.7021 69.5251C57.4647 69.1547 59.3202 68.5525 61.1757 67.9502C61.8251 67.6722 62.8454 67.8117 62.7531 66.6985C57.0944 67.3921 51.7603 67.9466 46.2868 69.5215C45.4055 69.7067 44.4313 70.1237 43.6429 70.0771C39.7467 70.4002 35.7116 70.3987 31.9078 71.835C31.1655 72.3449 30.3309 71.7417 29.6353 71.4631C29.821 70.9994 29.9138 70.7675 29.9138 70.7675C32.6044 69.4235 35.6198 67.9405 38.7736 68.1272C41.139 68.2672 43.4582 67.8507 45.8702 67.2023C49.8131 66.0906 53.8949 65.3037 58.1157 64.8415C60.1102 64.564 62.1047 64.2865 64.0992 64.009C64.4239 63.8699 64.8415 63.4991 65.5838 62.9892C64.1925 62.432 63.0794 62.5244 61.9662 62.6167C56.3074 63.3103 50.185 63.8181 44.2015 64.6507Z" fill="#EAAE68"/>
<path d="M164.345 21.286C164.207 18.2712 164.301 15.3492 162.957 12.6586C160.686 8.25158 158.601 3.38079 157.304 -1.44333C156.377 -4.50483 154.198 -6.45366 151.694 -8.26347C149.05 -6.36286 147.936 -3.58043 147.935 -0.89034C147.887 2.58821 148.628 6.11345 150.992 8.94359C152.754 11.2633 154.422 13.8149 156.416 16.2275C158.27 18.3153 160.449 20.2642 162.304 22.352C162.443 22.6767 163.231 22.7234 163.556 22.5844C163.974 22.2135 164.484 21.6107 164.345 21.286Z" fill="#EAAE68"/>
<path d="M91.6103 43.0124C89.0597 41.9911 86.4163 41.2016 84.0048 40.5049C81.5932 39.8083 79.1817 39.1117 76.863 38.1832C72.4575 36.419 67.7267 36.1389 62.9493 36.6473C62.068 36.8325 61.5114 36.8786 61.5109 38.2237C62.6702 38.6879 63.8296 39.1522 64.9889 39.6164C71.5741 41.9844 78.0665 44.5842 84.6055 46.3956C91.1445 48.2069 97.8231 48.9979 104.687 49.3252C106.821 49.3724 108.815 49.0949 110.717 47.7042C107.517 46.9609 104.503 45.7538 101.674 45.4281C97.6389 45.4265 94.6246 44.2195 91.6103 43.0124Z" fill="#EAAE68"/>
<path d="M91.4616 69.5876C88.6315 71.952 86.5431 75.1514 83.9448 77.6086C81.3465 80.0658 80.7884 84.1471 76.7522 86.8357C78.2379 83.1258 78.9812 79.9258 81.2547 77.6076C83.1107 75.6603 84.7348 73.6202 86.3589 71.58C85.6172 70.7449 84.8749 71.2548 84.3644 71.8576C82.2299 74.5005 79.9564 76.8186 77.8218 79.4615C73.6456 84.5155 72.4837 90.7765 69.8377 96.7122C69.7449 96.9441 69.7449 96.9441 69.652 97.1759C69.4196 98.4281 70.2076 99.8199 70.9032 100.098C72.0625 100.563 72.7586 99.4962 73.2691 98.8934C76.6101 94.5813 80.0441 90.0373 83.1533 85.6322C88.258 78.2596 92.4352 70.5156 98.5136 64.071C98.8383 63.932 98.885 63.1435 99.2564 62.216C95.9164 63.8381 94.0599 67.1304 91.4616 69.5876Z" fill="#EAAE68"/>
<path d="M122.586 66.4469C124.118 60.6035 125.976 54.6211 127.787 48.0821C125.004 49.658 123.612 51.7909 122.219 53.9239C119.295 59.2102 116.835 64.6823 115.07 70.4328C114.328 72.2878 113.817 74.2356 113.955 75.9053C114.464 79.3377 113.953 82.6306 113.998 85.8773C113.951 86.6657 114.229 87.3152 114.785 88.614C115.806 87.4085 116.641 86.6668 117.012 85.7393C118.034 83.1887 118.823 80.5453 119.52 78.1338C120.867 74.0991 121.564 70.3425 122.586 66.4469Z" fill="#EAAE68"/>
<path d="M148.623 16.8768C146.768 16.134 145.238 15.2522 143.568 14.0456C138.329 10.3332 132.857 6.52783 127.618 2.81535C125.114 1.00554 122.424 -0.340535 118.992 -1.1767C118.713 0.863952 119.594 2.02381 120.568 2.9518C121.68 4.20451 122.979 4.99349 124.091 6.2462C126.317 8.75162 128.96 10.8862 131.788 12.5569C135.915 15.0167 140.135 17.2446 144.448 19.2406C147.601 20.7724 151.033 21.6086 154.372 22.6766C155.067 22.9552 155.624 22.909 156.088 21.7497C153.492 20.1717 151.312 18.2229 148.623 16.8768Z" fill="#EAAE68"/>
<path d="M157.189 52.5944C157.839 50.9713 158.025 49.1625 158.443 47.4466C159.466 42.2059 159.793 36.6867 162.578 31.0757C160.444 32.3735 159.886 33.7647 159.329 35.156C158.772 36.5472 158.354 38.2631 157.565 39.5615C153.342 46.7489 150.973 54.6791 148.002 62.099C146.888 64.8814 147.351 67.7572 148.602 70.6797C150.271 70.5412 150.504 69.289 150.875 68.3615C153.15 63.3532 155.285 58.0202 157.189 52.5944Z" fill="#EAAE68"/>
<path d="M111.744 35.7391C109.333 33.6974 106.922 31.6558 103.815 30.6806C102.655 30.2163 101.682 29.2883 100.708 28.3603C98.2509 25.7621 95.2366 24.555 92.1294 23.5798C89.8107 22.6513 88.9294 22.8365 88.4652 23.9958C88.0471 25.7118 89.2064 26.176 90.2729 26.8722C94.7708 29.7495 99.2686 32.6268 104.091 35.3652C104.926 35.9684 105.946 36.108 106.549 36.6184C110.954 38.3825 115.36 40.1467 119.765 41.9109C120.461 42.1894 121.481 42.3289 122.873 42.886C120.323 40.5196 118.051 38.8027 115.268 37.6885C114.016 37.4561 112.718 36.6671 111.744 35.7391Z" fill="#EAAE68"/>
<path d="M86.2679 70.4636C86.175 70.6955 86.3141 71.0202 86.2212 71.2521C87.7991 68.6554 90.9535 67.497 92.9028 63.9728C89.7947 65.6877 87.8458 67.8669 86.2679 70.4636Z" fill="#EAAE68"/>
<path fill-rule="evenodd" clip-rule="evenodd" d="M167.547 19.3373C170.33 17.7614 183.459 8.49027 185.64 6.40396C186.475 5.66219 187.079 4.82756 187.682 3.99293C186.244 2.87924 184.714 3.34247 183.23 3.01724C177.571 2.36574 172.47 0.323026 168.344 -3.48179C167.138 -4.50263 165.933 -5.52348 164.82 -6.77618C163.939 -7.93605 163.059 -9.09591 162.502 -10.3948C161.344 -13.5491 160.603 -17.0744 159.584 -19.904C161.069 -22.2689 162.369 -24.17 163.761 -26.303C164.549 -26.2563 165.431 -26.4415 166.358 -26.0701C170.625 -24.6306 174.381 -22.5884 177.673 -19.3869C181.242 -15.5359 185.926 -13.1223 190.609 -10.7087C191.444 -10.1054 192.696 -9.87305 193.717 -9.73352C195.757 -9.45445 197.798 -9.17539 200.07 -8.80347C207.216 -15.897 213.619 -23.8257 217.751 -33.4714C218.586 -32.8681 219.142 -32.9143 219.374 -32.8214C219.977 -32.311 220.58 -31.8006 221.182 -31.2902C220.81 -27.6726 219.371 -24.7511 217.237 -22.1082C215.612 -20.0681 213.988 -18.028 212.596 -15.895C210.693 -13.1592 208.559 -10.5163 206.285 -8.19814C204.012 -5.87996 202.109 -3.14421 199.372 -1.01173C198.954 -0.640845 198.583 0.286629 198.536 1.07509C198.348 8.26406 196.675 15.1278 195.699 22.2701C195.605 23.847 194.955 25.4701 194.398 26.8613C191.891 33.1218 189.477 39.1504 186.97 45.4108C186.042 47.7295 184.65 49.8625 183.025 51.9027C181.216 54.4066 178.433 54.6374 176.764 52.0858C175.234 49.8589 174.029 47.4931 174.448 44.4321C175.053 39.5623 175.796 35.0172 177.792 30.7046C179.231 27.7831 180.114 24.9078 181.553 21.9864C182.295 20.1314 183.502 18.4622 184.477 16.7001C185.08 15.8655 185.544 14.7061 186.426 13.1759C185.22 13.5001 184.663 13.5463 184.246 13.9171C180.766 16.5595 177.194 19.4338 173.714 22.0762C171.812 23.4669 170.884 25.7856 168.518 26.9906C168.193 27.1296 167.822 28.0571 167.636 28.5208C166.011 33.251 163.922 37.7956 163.688 43.0829C163.315 49.3906 161.689 55.4658 158.811 61.3087C157.372 64.2302 156.258 67.0126 155.283 70.1198C154.4 72.9951 152.405 74.6176 150.178 76.1473C147.952 77.6771 144.613 76.609 144.057 73.9651C143.41 68.863 142.299 63.5751 144.805 58.6597C146.244 55.7382 147.358 52.9558 148.565 49.9415C150.144 45.9997 151.49 41.9651 154.46 38.5804C155.156 37.5139 155.62 36.3546 156.316 35.2881C152.884 35.797 139.431 42.5171 132.055 46.8277C131.497 49.5639 131.31 52.7178 130.428 55.593C129.406 59.4886 128.06 63.5233 127.038 67.4189C126.109 71.0826 125.412 74.8392 124.251 78.4101C123.183 81.7491 122.115 85.0881 120.815 88.3343C119.979 90.4211 118.402 91.6728 116.824 92.9245C116.407 93.2954 115.201 93.6196 114.737 93.4339C111.908 93.1082 109.96 91.2522 109.73 88.4692C109.315 82.1149 108.575 75.8995 111.546 69.8248C113.959 65.1412 115.306 59.7615 118.508 55.1247C119.019 54.5219 119.158 53.5016 119.623 52.3422C116.283 52.6192 114.335 53.4534 112.015 55.215C108.303 57.7645 105.566 61.242 102.596 64.6267C96.5176 71.0713 92.0157 78.9544 87.0038 86.0951C83.477 90.871 79.7184 95.554 76.0988 100.562C75.5883 101.165 75.0779 101.767 74.3356 102.277C71.7373 104.734 67.8417 103.713 66.7763 100.326C66.2669 98.239 65.9894 96.2445 66.825 94.1577C68.4963 89.984 70.1676 85.8104 71.7461 81.8686C72.3032 80.4774 73.4169 79.04 74.4377 77.8345C77.5931 73.9861 80.6095 69.8129 84.5995 66.5678C85.3418 66.0579 85.7132 65.1304 87.0587 63.7859C85.389 63.9244 84.5076 64.1096 83.6263 64.2948C80.2401 65.3602 76.7611 66.6576 73.282 67.9549C66.4629 70.8743 59.3657 73.1442 51.9905 74.7648C45.2648 76.1072 38.7242 78.331 32.1375 79.9982C27.9628 81.017 23.7881 82.0358 19.6135 83.0546C15.7635 83.9343 12.0992 84.3504 8.48116 85.323C6.39382 85.8324 4.44602 85.3214 2.35919 84.4858C1.06083 83.6968 0.36574 82.0732 1.15471 80.7748C2.45411 78.8737 3.61448 76.6479 5.88752 75.6748C7.27925 74.8868 8.53196 73.7741 9.69182 72.8934C12.9857 70.7147 16.2796 68.5361 19.5735 66.3574C20.6405 65.7085 21.5218 65.5233 22.7278 65.1991C29.8711 63.4857 36.8754 61.4476 43.9259 59.9661C48.3324 59.0402 52.6923 58.9027 57.0983 59.3219C60.484 59.6014 64.1016 59.9739 67.5802 60.0216C72.4038 60.0698 76.9955 60.0252 81.8191 60.0734C82.3757 60.0272 82.9323 59.9811 83.5817 59.703C85.6691 59.1936 94.9469 54.8374 97.4985 53.1686C96.2463 52.9363 95.3188 52.5649 94.2985 52.4253C85.6721 51.1234 77.1853 48.8011 69.0699 45.5513C65.5918 44.1585 62.3457 42.8586 58.9605 41.234C58.033 40.8626 57.1055 40.4912 56.4099 40.2127C54.4159 39.1451 54.3703 37.2435 56.1796 36.0847C57.896 35.1577 59.6125 34.2307 61.607 33.9532C67.2657 33.2597 72.9706 33.1227 78.3965 35.0264C81.1789 36.1406 84.2399 36.5592 87.1152 37.4415C89.2948 38.0453 91.7064 38.7419 93.7932 39.5776C96.3438 40.599 98.6625 41.5275 101.492 41.8532C102.837 41.8537 104.135 42.6427 105.526 43.1998C106.917 43.7569 108.633 44.175 110.675 43.109C103.347 41.251 97.8294 36.8891 91.7084 33.3618C89.9463 32.3871 88.2771 31.1805 86.515 30.2059C86.0513 30.0202 85.6804 29.6026 85.5413 29.2779C83.9649 27.8395 82.899 25.7983 83.4099 23.8505C84.0137 21.6708 85.9158 20.2801 88.096 19.5389C88.7455 19.2608 89.7658 19.4004 90.4614 19.6789C94.635 21.3502 98.9015 22.7897 102.75 25.945C106.598 29.1004 111.468 31.0503 115.13 34.6694C118.701 35.8303 121.483 38.2895 123.94 40.8878C125.888 42.7438 127.465 42.8371 129.83 41.6321C136.603 38.1562 143.608 34.773 150.288 31.5289C151.587 30.9728 152.886 30.4168 153.675 29.1184C150.197 27.7257 146.719 26.3329 143.473 25.033C137.444 22.6189 131.694 19.5091 126.454 15.7967C124.553 14.4973 122.838 12.7341 121.123 10.971C119.917 9.95016 119.129 8.55844 117.924 7.5376C115.652 5.82063 114.91 3.64045 114.03 1.13554C113.428 -0.719928 114.078 -2.34302 115.191 -3.7804C116.537 -5.12493 118.207 -5.26344 120.062 -4.52063C123.772 -3.03503 127.481 -1.54941 130.588 0.770825C134.9 4.1119 139.63 7.08209 144.267 10.2841C144.87 10.7946 145.658 10.8412 146.956 11.6302C146.632 10.4242 146.447 9.54288 146.076 9.12531C144.5 6.34185 143.991 2.90947 144.085 -0.0124954C144.18 -4.27951 146.083 -8.3603 149.794 -10.9098C150.954 -11.7906 152.531 -11.6973 153.737 -10.6764C156.889 -7.7996 159.81 -5.01562 161.2 -0.423378C162.312 3.51943 163.98 7.41606 165.416 11.2198C166.528 13.8176 167.548 16.6472 166.99 19.3835C167.176 18.9198 167.408 19.0126 167.547 19.3373ZM86.4529 71.3458C85.7111 70.5106 85.0617 70.7886 84.5512 71.3914C82.4167 74.0343 80.1432 76.3525 78.0086 78.9954C73.8324 84.0493 72.6705 90.3103 70.0245 96.246C69.9317 96.4779 69.9317 96.4779 69.8388 96.7098C69.6064 97.962 70.3944 99.3537 71.09 99.6323C72.2493 100.097 72.9454 99.03 73.4559 98.4273C76.7969 94.1151 80.2309 89.5711 83.3401 85.1661C88.4448 77.7935 92.622 70.0494 98.7004 63.6048C99.0251 63.4658 99.0718 62.6773 99.4432 61.7499C95.8246 64.0675 94.061 67.128 91.4627 69.5852C88.6326 71.9495 86.5442 75.149 83.9459 77.6062C81.3476 80.0634 80.7895 84.1447 76.7533 86.8333C78.239 83.1234 78.9823 79.9234 81.2558 77.6052C82.9728 75.3332 84.5969 73.293 86.4529 71.3458C88.1237 68.5171 91.278 67.3588 92.9955 63.7418C89.7945 65.6886 87.8456 67.8677 86.2677 70.4644C86.1748 70.6963 86.3139 71.021 86.4529 71.3458ZM181.426 -10.6195C182.585 -10.1552 183.745 -9.69095 184.904 -9.2267C184.023 -10.3866 182.864 -10.8508 181.426 -10.6195C181.287 -10.9442 181.241 -11.5008 181.334 -11.7326C179.015 -14.0062 176.743 -15.7231 174.657 -17.9039C172.2 -20.5021 169.047 -22.0339 165.29 -22.7311C165.012 -22.0354 164.826 -21.5717 164.547 -20.8761C163.85 -17.1195 165.379 -13.5476 167.512 -10.8103C169.551 -7.84114 172.565 -5.28904 176.182 -3.57156C181.422 -1.20412 186.942 -0.877346 192.554 -2.12749C193.111 -2.17365 193.76 -2.45169 193.668 -3.56487C185.691 -5.14487 178.921 -9.73918 170.713 -14.1021C172.383 -14.2406 173.033 -14.5187 173.264 -14.4258C175.676 -13.7292 177.995 -12.8007 180.313 -11.8722C180.916 -11.3617 181.287 -10.9442 181.426 -10.6195ZM65.8165 63.0821C64.4253 62.525 63.3121 62.6173 62.1989 62.7096C56.3083 63.3103 50.1859 63.8182 44.3414 64.9755C39.1464 65.8547 33.9047 67.5224 28.6169 68.6335C23.0972 69.6518 18.6434 72.7113 14.1897 75.7707C13.4474 76.2806 12.6122 77.0224 12.1018 77.6251C11.3595 78.135 10.7101 78.4131 10.1997 79.0158C9.68925 79.6186 8.20518 79.2933 8.34369 80.9631C14.7447 79.7597 21.3776 78.6491 27.6396 77.1209C36.9631 74.6663 46.2405 71.655 55.842 69.8499C57.6046 69.4795 59.4601 68.8772 61.3156 68.275C61.965 67.997 62.9853 68.1365 62.893 67.0233C57.2343 67.7169 51.9002 68.2714 46.4267 69.8463C45.5454 70.0314 44.5712 70.4485 43.7828 70.4018C39.8866 70.725 35.8515 70.7235 32.0477 72.1598C31.1664 72.345 30.3318 71.7417 29.6362 71.4632C29.8219 70.9994 29.9147 70.7676 29.9147 70.7676C32.6053 69.4235 35.6207 67.9405 38.7745 68.1272C41.1399 68.2673 43.4591 67.8507 45.8711 67.2023C49.8139 66.0907 53.8958 65.3038 58.1166 64.8416C60.1111 64.5641 62.1056 64.2865 64.1001 64.009C64.6567 63.9628 64.8424 63.4991 65.8165 63.0821ZM151.695 -8.26539C149.05 -6.36478 147.936 -3.58236 147.935 -0.892262C147.888 2.58629 148.628 6.11153 150.993 8.94168C152.754 11.2614 154.423 13.813 156.416 16.2256C158.271 18.3134 160.45 20.2622 162.304 22.3501C162.443 22.6748 163.232 22.7215 163.557 22.5825C163.881 22.4434 164.392 21.8407 164.253 21.516C164.115 18.5012 164.209 15.5792 162.865 12.8886C160.594 8.48153 158.508 3.61074 157.212 -1.21338C156.378 -4.50675 154.292 -6.68745 151.695 -8.26539ZM110.302 48.0716C107.102 47.3283 104.087 46.1213 101.258 45.7955C97.8725 45.5159 94.8582 44.3089 91.8439 43.1018C89.2933 42.0805 86.6499 41.291 84.2383 40.5943C81.8268 39.8977 79.4153 39.2011 77.0966 38.2726C72.6911 36.5084 67.9603 36.2283 63.1829 36.7367C62.3016 36.9219 61.745 36.968 61.7445 38.3131C62.9038 38.7773 64.0632 39.2416 65.2225 39.7058C71.8077 42.0738 78.3 44.6736 84.839 46.4849C91.3781 48.2963 98.0566 49.0873 104.921 49.4146C106.266 49.4151 108.399 49.4623 110.302 48.0716ZM127.787 48.0783C125.004 49.6542 123.611 51.7872 122.219 53.9202C119.295 59.2065 116.835 64.6785 115.07 70.4291C114.327 72.284 113.817 74.2318 113.955 75.9016C114.464 79.334 113.952 82.6268 113.998 85.8735C113.951 86.662 114.229 87.3114 114.785 88.6103C115.806 87.4048 116.641 86.663 117.012 85.7355C118.034 83.185 118.823 80.5415 119.52 78.13C120.542 74.2344 121.239 70.4778 122.493 66.6751C124.118 60.5998 125.976 54.6173 127.787 48.0783ZM118.994 -1.18161C118.715 0.859049 119.595 2.01891 120.569 2.9469C121.682 4.1996 122.98 4.98858 124.093 6.24129C126.318 8.74671 128.961 10.8812 131.79 12.552C135.917 15.0118 140.136 17.2397 144.449 19.2357C147.602 20.7675 151.034 21.6037 154.373 22.6717C155.069 22.9503 155.625 22.9041 156.09 21.7448C153.91 19.7959 151.731 17.8471 149.042 16.501C147.187 15.7582 145.657 14.8764 143.987 13.6698C138.748 9.95737 133.276 6.15204 128.037 2.43956C125.115 1.00063 122.333 -0.11357 118.994 -1.18161ZM179.687 48.1445C181.821 46.8467 182.471 45.2236 183.214 43.3687C185.535 37.5719 187.95 31.5433 190.271 25.7466C190.735 24.5872 191.199 23.4279 191.432 22.1757C192.036 18.651 192.64 15.1263 193.106 11.2768C193.152 10.4884 193.013 10.1636 191.761 9.93126C191.297 11.0906 190.833 12.2499 190.368 13.4093C189.626 15.2642 188.744 16.7945 187.769 18.5566C186.702 20.5506 185.541 22.7764 184.705 24.8632C183.684 27.4138 182.802 30.2891 181.549 32.7468C179.738 36.5957 179.412 40.7699 178.854 44.8512C178.714 45.8715 179.363 46.9385 179.687 48.1445ZM162.579 31.0698C160.445 32.3677 159.888 33.7589 159.331 35.1501C158.774 36.5413 158.356 38.2572 157.567 39.5556C153.344 46.743 150.975 54.6733 148.004 62.0931C146.89 64.8755 147.352 67.7513 148.604 70.6738C150.273 70.5353 150.506 69.2831 150.877 68.3556C153.013 63.0226 155.148 57.6896 157.191 52.5885C157.841 50.9654 158.027 49.1566 158.445 47.4407C159.375 42.4319 159.702 36.9127 162.579 31.0698ZM122.78 43.1136C120.23 40.7472 117.958 39.0303 115.175 37.9161C113.784 37.359 112.718 36.6628 111.512 35.642C109.101 33.6003 106.69 31.5586 103.583 30.5834C102.424 30.1192 101.45 29.1912 100.476 28.2632C98.0192 25.6649 95.0049 24.4579 91.8977 23.4827C89.5791 22.5542 88.6977 22.7394 88.2335 23.8987C87.8154 25.6147 88.9748 26.0789 90.0412 26.775C94.5391 29.6524 99.037 32.5297 103.86 35.268C104.694 35.8713 105.714 36.0108 106.317 36.5212C110.723 38.2854 115.128 40.0496 119.534 41.8137C120.368 42.417 121.389 42.5565 122.78 43.1136Z" fill="#FAD5A9"/>
</svg>
